v -0.00248 0.01626  -0.01579200
v 0.00227 0.00774  -0.02032300
v -0.00835 0.01326  -0.01740900
v 0.00501 0.01618  -0.01542100
v -0.00194 0.01888  -0.01236400
v 0.01011 0.01604  -0.01206100
v -0.01173 0.00625  -0.01924500
v -0.00875 -0.00214  -0.02189000
v 0.00001 -0.00651  -0.02255000
v 0.00842 -0.00080  -0.02201200
v 0.01283 0.00427  -0.01787100
v 0.01116 0.01252  -0.01534100
v -0.00816 0.01647  -0.01368200
v -0.01410 0.01031  -0.01553500
v 0.01648 0.01052  -0.01162700
v -0.00231 0.02131  -0.00650000
v 0.00693 0.01975  -0.00699800
v 0.01431 0.01614  -0.00625300
v -0.01540 0.00165  -0.01796100
v -0.01047 -0.00548  -0.02026900
v -0.00016 -0.00949  -0.02159100
v 0.00872 -0.00667  -0.02117100
v 0.01447 -0.00300  -0.01806800
v 0.01732 0.00205  -0.01520700
v -0.00943 0.01915  -0.00791300
v -0.01553 0.01388  -0.00988000
v -0.01880 0.00564  -0.01295900
v 0.01975 0.00981  -0.00547900
v -0.00314 0.02233  -0.00078600
v 0.00294 0.02222   0.00036700
v 0.00951 0.02014   0.00086000
v 0.01675 0.01530   0.00129800
v -0.01656 -0.00447  -0.01648700
v -0.00949 -0.01057  -0.01902600
v 0.00079 -0.01238  -0.02017900
v 0.00987 -0.01047  -0.01891900
v 0.01722 -0.00578  -0.01468400
v 0.02171 0.00148  -0.00841100
v -0.01011 0.02022  -0.00217300
v -0.01673 0.01544  -0.00404100
v -0.02137 0.00657  -0.00721900
v -0.02073 -0.00233  -0.01120100
v 0.02319 -0.00031  -0.00523000
v 0.02128 0.00928   0.00027200
v -0.01154 0.01953   0.00424000
v -0.00490 0.02167   0.00489000
v 0.00157 0.02176   0.00641100
v 0.00787 0.01997   0.00776800
v 0.01605 0.01359   0.00917900
v -0.01542 -0.01016  -0.01479000
v -0.00747 -0.01419  -0.01715800
v 0.00229 -0.01635  -0.01707000
v 0.01303 -0.01281  -0.01473000
v 0.01941 -0.00859  -0.01044500
v -0.01767 0.01479   0.00234600
v -0.02237 0.00649  -0.00138800
v -0.02246 -0.00385  -0.00559900
v -0.01731 -0.01184  -0.01058800
v 0.02314 -0.00424   0.00101700
v 0.02106 0.00581   0.00754800
v -0.01345 0.01671   0.00883200
v -0.01991 0.01108   0.00511100
v -0.00597 0.01944   0.01070700
v 0.00198 0.01885   0.01290200
v 0.00933 0.01511   0.01481400
v 0.01471 0.00968   0.01546900
v -0.00894 -0.01604  -0.01458000
v 0.00211 -0.01823  -0.01504300
v 0.01339 -0.01569  -0.01103000
v 0.02097 -0.01011  -0.00537500
v -0.02330 0.00118   0.00162700
v -0.02188 -0.00793  -0.00305000
v -0.01567 -0.01451  -0.01100900
v -0.00617 -0.01791  -0.01379600
v 0.02100 -0.00477   0.00948100
v 0.01920 0.00192   0.01364500
v -0.00644 0.01677   0.01481900
v -0.01333 0.01467   0.01264100
v -0.01945 0.00881   0.00958300
v -0.00048 0.01553   0.01774100
v 0.00432 0.01349   0.01890800
v 0.00870 0.00831   0.02005000
v 0.01409 -0.00033   0.01903200
v 0.00562 -0.01927  -0.01233100
v 0.01474 -0.01732  -0.00427300
v 0.01999 -0.01242   0.00225400
v -0.02324 0.00062   0.00599600
v -0.02262 -0.00699   0.00138200
v -0.01637 -0.01413  -0.00468400
v -0.00775 -0.01763  -0.00886000
v 0.01725 -0.01546   0.00579700
v 0.01700 -0.00728   0.01469000
v -0.01414 0.01068   0.01552800
v -0.00685 0.01216   0.01858900
v -0.01872 0.00392   0.01212500
v -0.02037 -0.00376   0.00998300
v -0.00065 0.00995   0.02152000
v 0.00565 0.00569   0.02205400
v 0.00851 -0.00174   0.02206100
v 0.01167 -0.00922   0.01804700
v 0.00062 -0.01977  -0.00872400
v 0.00669 -0.02045  -0.00660400
v 0.01360 -0.01866  -0.00059500
v -0.01782 -0.01236   0.00245500
v -0.01066 -0.01663  -0.00188800
v -0.00324 -0.01914  -0.00296700
v 0.01227 -0.01556   0.01229200
v -0.01326 -0.00142   0.01646700
v -0.00653 0.00374   0.01811000
v -0.01724 -0.00953   0.01327800
v -0.01509 -0.01682   0.00739600
v -0.00096 0.00143   0.02098600
v 0.00519 -0.00206   0.02339600
v 0.00821 -0.00929   0.02087000
v 0.00340 -0.01952  -0.00104700
v 0.00945 -0.01880   0.00423100
v -0.00940 -0.02072   0.00414800
v -0.00024 -0.02180   0.00543100
v 0.00882 -0.01510   0.01601300
v -0.01234 -0.00743   0.02526600
v -0.01679 -0.01530   0.02110500
v -0.00498 -0.00315   0.02760200
v -0.01574 -0.02130   0.01493800
v -0.01354 -0.02733   0.01162600
v 0.00198 -0.00643   0.03007300
v 0.00503 -0.01407   0.02960900
v 0.00475 -0.02132   0.02710600
v 0.00700 -0.01947   0.01057300
v -0.00843 -0.03015   0.00998500
v -0.00141 -0.03085   0.01300400
v 0.00359 -0.02804   0.02202300
v -0.00712 -0.00390   0.03403500
v -0.01301 -0.00897   0.03011000
v -0.01695 -0.01719   0.02560800
v -0.01787 -0.02518   0.02155900
v -0.00118 -0.00600   0.03730000
v -0.01613 -0.03330   0.01455700
v -0.01351 -0.03574   0.01187600
v 0.00374 -0.01037   0.03822000
v 0.00612 -0.01650   0.03822600
v 0.00247 -0.03206   0.03070600
v 0.00364 -0.02250   0.03559000
v -0.00369 -0.03904   0.01565400
v 0.00209 -0.03797   0.02198900
v -0.00799 -0.00262   0.04055200
v -0.00243 -0.00400   0.04282600
v -0.01566 -0.00717   0.03728500
v -0.01749 -0.01523   0.03699800
v -0.01936 -0.02376   0.03146800
v -0.02072 -0.03318   0.02304800
v 0.00191 -0.00758   0.04501300
v -0.01887 -0.04020   0.01752100
v -0.01685 -0.04457   0.01266200
v 0.00307 -0.01264   0.04593000
v 0.00057 -0.02850   0.03895900
v 0.00137 -0.01947   0.04388700
v 0.00099 -0.04543   0.02307200
v 0.00127 -0.03758   0.03213200
v -0.00793 -0.04619   0.01636300
v -0.01143 -0.00072   0.04537800
v -0.00557 -0.00097   0.04971000
v -0.00170 -0.00721   0.05134000
v -0.02343 -0.00186   0.03478600
v -0.02487 -0.01109   0.03880300
v -0.02578 -0.02050   0.03737700
v -0.02716 -0.02757   0.03135900
v -0.02548 -0.03530   0.02756600
v -0.00115 -0.01667   0.05090900
v -0.02293 -0.04328   0.02091200
v -0.02150 -0.04765   0.01618100
v -0.01954 -0.05051   0.00991500
v -0.00198 -0.03326   0.04426600
v -0.00253 -0.02608   0.04795400
v 0.00142 -0.04758   0.03298500
v -0.00045 -0.04027   0.03844000
v -0.01432 -0.05251   0.01528600
v -0.00344 -0.05363   0.02085300
v 0.00212 -0.05132   0.02646900
v -0.01159 0.00024   0.04997100
v -0.00474 -0.00903   0.05448400
v -0.00358 -0.01913   0.05336700
v -0.02362 0.00133   0.03688100
v -0.03048 -0.00243   0.03167200
v -0.03236 -0.01664   0.03489100
v -0.03254 -0.02743   0.03224000
v -0.03080 -0.03775   0.03053500
v -0.02809 -0.04530   0.02345900
v -0.00465 -0.03664   0.04892200
v -0.00398 -0.02897   0.05337300
v -0.02819 -0.05033   0.01358600
v -0.02504 -0.05368   0.00832900
v -0.01934 -0.05589   0.00940100
v 0.00216 -0.05388   0.03195800
v -0.00014 -0.04997   0.03879800
v -0.00265 -0.04343   0.04467500
v 0.00211 -0.05666   0.02574700
v -0.01613 -0.05709   0.01567500
v -0.00904 -0.05815   0.01971000
v -0.00320 -0.05863   0.02147800
v -0.01517 -0.00166   0.05352600
v -0.02639 0.00091   0.04306900
v -0.01071 -0.01085   0.05721800
v -0.00887 -0.02010   0.05854300
v -0.03406 -0.00131   0.03554500
v -0.03602 -0.01757   0.03680300
v -0.03694 -0.02698   0.03702900
v -0.03557 -0.03640   0.03696900
v -0.02868 -0.04736   0.03111700
v -0.03012 -0.05381   0.01679600
v -0.00873 -0.03811   0.05377000
v -0.00736 -0.03024   0.05845200
v -0.02696 -0.05701   0.01005700
v -0.02056 -0.05963   0.01048700
v -0.01596 -0.06122   0.01814700
v 0.00292 -0.05996   0.03386800
v -0.00077 -0.05451   0.04274500
v -0.00631 -0.04884   0.04894700
v 0.00368 -0.06277   0.02773700
v -0.00876 -0.06382   0.02050300
v -0.00090 -0.06442   0.02243500
v -0.01821 -0.00617   0.05538500
v -0.03124 -0.00389   0.04846900
v -0.03547 -0.00749   0.04188800
v -0.01373 -0.01826   0.06196900
v -0.03641 -0.01559   0.04323200
v -0.03606 -0.02646   0.04511900
v -0.03383 -0.03512   0.04494200
v -0.02949 -0.05190   0.03929800
v -0.02552 -0.05895   0.02803000
v -0.02415 -0.06204   0.03556400
v -0.02925 -0.06061   0.01785100
v -0.01347 -0.03959   0.05544500
v -0.01104 -0.02954   0.06191700
v -0.02544 -0.06222   0.01192800
v -0.01694 -0.06617   0.02055800
v 0.00356 -0.06724   0.03763200
v 0.00438 -0.06924   0.02768400
v -0.00187 -0.06554   0.04524100
v -0.01137 -0.04799   0.05304000
v -0.00603 -0.06442   0.04975000
v -0.00215 -0.07035   0.02221400
v -0.01052 -0.06884   0.02120500
v -0.02026 -0.01904   0.06074800
v -0.02910 -0.01746   0.05643700
v -0.03326 -0.01947   0.05121100
v -0.01817 -0.03243   0.06031600
v -0.03192 -0.02885   0.05258500
v -0.02439 -0.06329   0.04310600
v -0.02654 -0.05516   0.04609700
v -0.02918 -0.04194   0.04937500
v -0.02252 -0.06617   0.02509200
v -0.02008 -0.07336   0.03702000
v -0.01986 -0.04303   0.05385600
v 0.00785 -0.08342   0.03565700
v 0.00777 -0.08342   0.02823000
v 0.00167 -0.08460   0.02317500
v -0.01806 -0.05320   0.05149200
v -0.01210 -0.06538   0.05144400
v -0.00026 -0.08338   0.04573600
v -0.00728 -0.08527   0.02397100
v -0.01042 -0.07652   0.02395200
v -0.02547 -0.03153   0.05777200
v -0.01974 -0.06445   0.04828600
v -0.01351 -0.08848   0.03160200
v -0.01459 -0.08632   0.04646800
v 0.01039 -0.11475   0.04228700
v 0.01356 -0.10732   0.03051000
v 0.00730 -0.11300   0.02112000
v -0.00842 -0.08546   0.05057300
v -0.00198 -0.11554   0.04860000
v -0.00587 -0.11481   0.02813100
v -0.00791 -0.11705   0.04513700
v 0.01629 -0.14574   0.04221300
v 0.02159 -0.14328   0.03098900
v 0.01341 -0.14348   0.01802400
v 0.00222 -0.14661   0.02498400
v 0.00672 -0.14783   0.04493700
v -0.00005 -0.14909   0.03920200
v 0.02236 -0.17834   0.03975200
v 0.02676 -0.17545   0.02927700
v 0.01875 -0.17508   0.01606100
v 0.00704 -0.17515   0.02258200
v 0.00573 -0.17755   0.03443400
v 0.01185 -0.17691   0.04193700
v 0.02532 -0.20629   0.03695900
v 0.02940 -0.20431   0.02290700
v 0.01873 -0.20450   0.01405200
v 0.01033 -0.20677   0.01987300
v 0.00950 -0.20807   0.03153400
v 0.01547 -0.20794   0.03865200
v 0.02884 -0.24164   0.03249300
v 0.03210 -0.23981   0.01974600
v 0.02253 -0.23884   0.01025100
v 0.01278 -0.23932   0.01536200
v 0.01171 -0.24239   0.02718800
v 0.01908 -0.24253   0.03471500
v 0.03117 -0.27451   0.02713900
v 0.03393 -0.27286   0.01631100
v 0.02426 -0.27070   0.00621300
v 0.01330 -0.27243   0.01167800
v 0.01287 -0.27503   0.02487000
v 0.02061 -0.27635   0.03034900
v 0.02090 -0.30701   0.02699100
v 0.02852 -0.30667   0.02529100
v 0.03341 -0.30500   0.01098000
v 0.02674 -0.30364   0.00179800
v 0.01723 -0.30352   0.00427300
v 0.01112 -0.30483   0.01286700
v 0.01310 -0.30687   0.02360400
v 0.01897 -0.34012   0.02442700
v 0.02980 -0.34045   0.02195800
v 0.03304 -0.34113   0.00787900
v 0.02504 -0.33838  -0.00407800
v 0.01545 -0.33700  -0.00150300
v 0.01060 -0.33775   0.00855600
v 0.01003 -0.33915   0.02023300
v 0.01628 -0.36701   0.02425200
v 0.03051 -0.36985   0.01857600
v 0.02998 -0.36815   0.00228200
v 0.02535 -0.36511  -0.00821900
v 0.01455 -0.36233  -0.01007600
v 0.00847 -0.36752   0.00619300
v 0.00702 -0.36664   0.02048800
v 0.00265 -0.37998   0.02300900
v 0.01552 -0.38139   0.02561700
v 0.02993 -0.38639   0.02078500
v 0.02955 -0.38477  -0.00044700
v 0.02203 -0.37788  -0.01376800
v 0.01212 -0.37527  -0.01819600
v 0.00812 -0.37788  -0.00924700
v 0.00662 -0.38067   0.00326600
v -0.00290 -0.38698   0.02855200
v 0.01198 -0.39416   0.03142000
v -0.00045 -0.38698   0.01448800
v 0.02296 -0.39725   0.02860600
v 0.03531 -0.39707   0.02110500
v 0.03297 -0.39563   0.00844800
v 0.03114 -0.39575  -0.00187700
v 0.02707 -0.39099  -0.01313700
v 0.02078 -0.38795  -0.02068900
v 0.00679 -0.38790  -0.03340600
v 0.01116 -0.38212  -0.02345900
v 0.00438 -0.38602  -0.01346900
v 0.00359 -0.38785   0.00022200
v -0.00943 -0.39167   0.02912700
v -0.00979 -0.39017   0.01438400
v 0.00235 -0.39857   0.03606700
v 0.01040 -0.40218   0.03410700
v -0.00673 -0.39219   0.00910600
v 0.02152 -0.40441   0.02931800
v 0.03545 -0.40579   0.02132500
v 0.03266 -0.40518   0.00878900
v 0.03006 -0.40626  -0.00023200
v 0.03282 -0.40516  -0.00782900
v 0.02596 -0.39982  -0.01800100
v 0.01914 -0.39462  -0.02751900
v 0.01745 -0.40216  -0.03031500
v 0.01173 -0.39780  -0.03687700
v 0.00294 -0.39396  -0.03752600
v -0.00085 -0.39127  -0.02599500
v -0.00180 -0.39252  -0.01657100
v -0.00204 -0.39448  -0.00193800
v -0.01677 -0.39715   0.02767700
v -0.00977 -0.40287   0.03520700
v -0.01800 -0.39569   0.02204400
v -0.01107 -0.40073   0.00634800
v -0.01679 -0.39757   0.01205100
v -0.00214 -0.40630   0.03703300
v 0.00787 -0.40846   0.03412100
v -0.00228 -0.40008  -0.00155500
v 0.01748 -0.41185   0.02967700
v 0.02459 -0.41326   0.02771400
v 0.03120 -0.41407   0.02252100
v 0.02975 -0.41350   0.01067000
v 0.02546 -0.41284   0.00003300
v 0.02971 -0.41363  -0.00610800
v 0.03334 -0.41418  -0.01022700
v 0.02979 -0.41038  -0.01631600
v 0.02465 -0.40757  -0.02137500
v 0.01514 -0.40929  -0.03091900
v 0.00683 -0.40254  -0.03829800
v -0.00730 -0.39755  -0.03605400
v -0.01552 -0.39417  -0.02794100
v -0.00365 -0.39353  -0.02842500
v -0.01012 -0.39299  -0.01894000
v -0.00808 -0.39839  -0.01301600
v -0.02241 -0.40459   0.02329700
v -0.02116 -0.40640   0.02979300
v -0.01255 -0.41042   0.03059700
v -0.02051 -0.40562   0.01399800
v -0.00288 -0.40842   0.00623100
v -0.01637 -0.40888   0.00878700
v -0.00645 -0.41367   0.03233000
v 0.00324 -0.41668   0.03191200
v -0.00104 -0.40886  -0.00940500
v 0.00406 -0.41053  -0.00184300
v 0.01677 -0.41768   0.02848100
v 0.02316 -0.42122   0.02563300
v 0.02288 -0.42114   0.01437900
v 0.01926 -0.41779   0.00438500
v 0.02079 -0.41875  -0.00409500
v 0.02907 -0.42093  -0.01158100
v 0.02746 -0.41705  -0.01878900
v 0.02160 -0.41314  -0.02296200
v 0.01271 -0.41420  -0.03125200
v 0.00247 -0.41180  -0.03644000
v -0.00763 -0.40920  -0.03673000
v -0.02066 -0.40859  -0.03373600
v -0.01767 -0.39590  -0.02093300
v -0.01682 -0.40342  -0.01319800
v -0.02182 -0.41072   0.01965500
v -0.02124 -0.41313   0.02808000
v -0.01578 -0.41737   0.03183700
v -0.01497 -0.41551   0.01246300
v -0.00544 -0.41633   0.00758300
v -0.00752 -0.42244   0.03229600
v 0.00584 -0.42308   0.02991700
v -0.01829 -0.40992  -0.01440300
v -0.01322 -0.41562  -0.01429100
v -0.00449 -0.42201  -0.01392700
v 0.00726 -0.41632  -0.00112500
v 0.00721 -0.41768   0.00564400
v 0.01378 -0.42354   0.02572500
v 0.01443 -0.42455   0.01770300
v 0.01314 -0.41835  -0.00020900
v 0.01249 -0.42113   0.00917700
v 0.01415 -0.42152  -0.00539100
v 0.01935 -0.42550  -0.01297500
v 0.02215 -0.42502  -0.02227400
v 0.01717 -0.41875  -0.02593700
v 0.00957 -0.42071  -0.02991900
v 0.00323 -0.41778  -0.03455400
v -0.00762 -0.41545  -0.03609200
v -0.01810 -0.41453  -0.03388400
v -0.02232 -0.40362  -0.02110100
v -0.00942 -0.41904   0.01284000
v -0.01432 -0.41942   0.01857800
v -0.01156 -0.42186   0.02456000
v 0.00132 -0.42080   0.01088700
v -0.00073 -0.42458   0.02330700
v -0.02098 -0.41590  -0.02312400
v -0.01442 -0.42086  -0.01840100
v -0.00373 -0.42643  -0.01614700
v 0.00634 -0.42161  -0.00760600
v 0.00628 -0.42456   0.01717100
v 0.00454 -0.42913  -0.01580700
v 0.00908 -0.43028  -0.02131200
v 0.01190 -0.42796  -0.02818500
v -0.00443 -0.42510  -0.03430200
v -0.01377 -0.42273  -0.03157100
v -0.01584 -0.42224  -0.02439900
v -0.00446 -0.42290   0.01703600
v -0.00897 -0.42693  -0.02119800
v -0.00163 -0.42948  -0.02092500
v 0.00130 -0.42816  -0.03167700
v -0.00817 -0.42719  -0.02745500
f 1 2 3
f 4 2 1
f 3 5 1
f 1 6 4
f 1 5 6
f 3 2 7
f 7 2 8
f 8 2 9
f 9 2 10
f 10 2 11
f 11 2 12
f 12 2 4
f 3 13 5
f 3 14 13
f 7 14 3
f 4 15 12
f 4 6 15
f 13 16 5
f 5 17 6
f 5 16 17
f 6 18 15
f 6 17 18
f 7 19 14
f 8 19 7
f 8 20 19
f 9 20 8
f 9 21 20
f 10 21 9
f 10 22 21
f 11 22 10
f 11 23 22
f 11 24 23
f 12 24 11
f 12 15 24
f 13 25 16
f 14 25 13
f 14 26 25
f 14 27 26
f 19 27 14
f 15 28 24
f 15 18 28
f 25 29 16
f 16 30 17
f 16 29 30
f 17 31 18
f 17 30 31
f 18 32 28
f 18 31 32
f 19 33 27
f 20 33 19
f 20 34 33
f 21 34 20
f 21 35 34
f 22 35 21
f 22 36 35
f 23 36 22
f 23 37 36
f 24 37 23
f 24 38 37
f 24 28 38
f 25 39 29
f 26 39 25
f 26 40 39
f 27 40 26
f 27 41 40
f 27 42 41
f 33 42 27
f 28 43 38
f 28 44 43
f 28 32 44
f 45 46 29
f 39 45 29
f 29 46 30
f 30 47 31
f 46 47 30
f 31 48 32
f 47 48 31
f 32 49 44
f 48 49 32
f 33 50 42
f 34 50 33
f 34 51 50
f 35 51 34
f 35 52 51
f 36 52 35
f 36 53 52
f 37 53 36
f 37 54 53
f 38 54 37
f 38 43 54
f 55 45 39
f 40 55 39
f 56 55 40
f 41 56 40
f 57 56 41
f 42 57 41
f 58 57 42
f 50 58 42
f 43 59 54
f 60 59 43
f 44 60 43
f 49 60 44
f 45 61 46
f 62 61 45
f 55 62 45
f 61 63 46
f 46 63 47
f 47 64 48
f 63 64 47
f 48 65 49
f 64 65 48
f 49 66 60
f 65 66 49
f 67 58 50
f 51 67 50
f 68 67 51
f 52 68 51
f 69 68 52
f 53 69 52
f 70 69 53
f 54 70 53
f 59 70 54
f 71 62 55
f 56 71 55
f 72 71 56
f 57 72 56
f 73 72 57
f 58 73 57
f 74 73 58
f 67 74 58
f 59 75 70
f 76 75 59
f 60 76 59
f 66 76 60
f 61 77 63
f 61 78 77
f 62 78 61
f 62 79 78
f 71 79 62
f 63 80 64
f 63 77 80
f 64 81 65
f 64 80 81
f 65 82 66
f 65 81 82
f 66 83 76
f 66 82 83
f 84 74 67
f 68 84 67
f 85 84 68
f 69 85 68
f 86 85 69
f 70 86 69
f 75 86 70
f 71 87 79
f 72 87 71
f 72 88 87
f 73 88 72
f 73 89 88
f 74 89 73
f 74 90 89
f 84 90 74
f 75 91 86
f 75 92 91
f 76 92 75
f 76 83 92
f 93 94 77
f 78 93 77
f 77 94 80
f 95 93 78
f 79 95 78
f 96 95 79
f 87 96 79
f 80 97 81
f 94 97 80
f 81 98 82
f 97 98 81
f 82 99 83
f 98 99 82
f 83 100 92
f 99 100 83
f 84 101 90
f 84 102 101
f 85 102 84
f 85 103 102
f 86 103 85
f 86 91 103
f 88 96 87
f 104 96 88
f 89 104 88
f 105 104 89
f 90 105 89
f 106 105 90
f 101 106 90
f 91 107 103
f 100 107 91
f 92 100 91
f 93 108 94
f 95 108 93
f 108 109 94
f 94 109 97
f 110 108 95
f 96 110 95
f 111 110 96
f 104 111 96
f 97 112 98
f 109 112 97
f 98 113 99
f 112 113 98
f 99 113 100
f 100 114 107
f 113 114 100
f 115 106 101
f 102 115 101
f 116 115 102
f 103 116 102
f 107 116 103
f 117 111 104
f 105 117 104
f 118 117 105
f 106 118 105
f 115 118 106
f 107 119 116
f 114 119 107
f 108 120 109
f 121 120 108
f 110 121 108
f 120 122 109
f 109 122 112
f 123 121 110
f 111 123 110
f 124 123 111
f 117 124 111
f 112 125 113
f 122 125 112
f 113 126 114
f 125 126 113
f 114 127 119
f 126 127 114
f 128 118 115
f 116 128 115
f 119 128 116
f 129 124 117
f 118 129 117
f 130 129 118
f 128 130 118
f 119 131 128
f 127 131 119
f 120 132 122
f 120 133 132
f 121 133 120
f 121 134 133
f 121 135 134
f 123 135 121
f 122 136 125
f 122 132 136
f 123 137 135
f 124 137 123
f 124 138 137
f 129 138 124
f 125 139 126
f 125 136 139
f 126 140 127
f 126 139 140
f 127 141 131
f 127 142 141
f 127 140 142
f 131 130 128
f 129 143 138
f 130 143 129
f 130 144 143
f 131 144 130
f 131 141 144
f 133 145 132
f 132 146 136
f 132 145 146
f 133 147 145
f 134 147 133
f 134 148 147
f 135 148 134
f 135 149 148
f 135 150 149
f 137 150 135
f 136 151 139
f 136 146 151
f 137 152 150
f 138 152 137
f 138 153 152
f 143 153 138
f 139 154 140
f 139 151 154
f 140 155 142
f 140 156 155
f 140 154 156
f 141 157 144
f 141 158 157
f 142 158 141
f 142 155 158
f 143 159 153
f 144 159 143
f 144 157 159
f 147 160 145
f 145 161 146
f 145 160 161
f 146 162 151
f 146 161 162
f 147 163 160
f 147 164 163
f 148 164 147
f 148 165 164
f 149 165 148
f 149 166 165
f 150 166 149
f 150 167 166
f 152 167 150
f 151 168 154
f 151 162 168
f 152 169 167
f 152 170 169
f 153 170 152
f 153 171 170
f 159 171 153
f 154 172 156
f 154 173 172
f 168 173 154
f 155 174 158
f 155 175 174
f 156 175 155
f 156 172 175
f 157 176 159
f 157 177 176
f 178 157 158
f 178 177 157
f 158 174 178
f 159 176 171
f 163 179 160
f 160 179 161
f 161 180 162
f 161 179 180
f 162 181 168
f 162 180 181
f 163 182 179
f 164 183 163
f 163 183 182
f 165 183 164
f 165 184 183
f 166 184 165
f 166 185 184
f 166 186 185
f 167 186 166
f 167 187 186
f 169 187 167
f 168 188 173
f 168 189 188
f 168 181 189
f 169 190 187
f 170 190 169
f 170 191 190
f 171 191 170
f 171 192 191
f 176 192 171
f 172 193 175
f 172 194 193
f 172 195 194
f 173 195 172
f 173 188 195
f 174 196 178
f 175 196 174
f 175 193 196
f 176 197 192
f 177 197 176
f 177 198 197
f 199 198 177
f 178 199 177
f 196 199 178
f 179 200 180
f 201 200 179
f 182 201 179
f 180 202 181
f 200 202 180
f 181 203 189
f 202 203 181
f 204 201 182
f 183 204 182
f 205 204 183
f 184 205 183
f 206 205 184
f 185 206 184
f 207 206 185
f 186 207 185
f 208 207 186
f 187 208 186
f 209 208 187
f 190 209 187
f 188 210 195
f 211 210 188
f 189 211 188
f 203 211 189
f 212 209 190
f 191 212 190
f 213 212 191
f 192 213 191
f 214 213 192
f 197 214 192
f 193 215 196
f 216 215 193
f 194 216 193
f 217 216 194
f 195 217 194
f 210 217 195
f 196 218 199
f 215 218 196
f 219 214 197
f 198 219 197
f 220 219 198
f 199 220 198
f 218 220 199
f 200 221 202
f 222 221 200
f 201 222 200
f 223 222 201
f 204 223 201
f 202 221 203
f 203 224 211
f 221 224 203
f 225 223 204
f 205 225 204
f 226 225 205
f 206 226 205
f 227 226 206
f 207 227 206
f 228 227 207
f 208 228 207
f 208 229 230
f 208 230 228
f 229 208 209
f 229 209 231
f 231 209 212
f 210 232 217
f 233 232 210
f 211 233 210
f 224 233 211
f 231 212 234
f 234 212 213
f 234 213 235
f 235 213 214
f 219 235 214
f 216 236 215
f 215 236 237
f 215 237 218
f 217 238 216
f 216 238 236
f 239 240 217
f 217 240 238
f 232 239 217
f 218 237 241
f 218 241 220
f 220 242 219
f 219 242 235
f 220 241 242
f 221 243 224
f 222 243 221
f 244 243 222
f 223 244 222
f 245 244 223
f 225 245 223
f 224 246 233
f 243 246 224
f 226 245 225
f 247 245 226
f 227 247 226
f 228 247 227
f 228 230 248
f 228 248 249
f 250 247 228
f 249 250 228
f 251 229 231
f 251 252 229
f 229 252 230
f 230 252 248
f 251 231 234
f 232 253 239
f 246 253 232
f 233 246 232
f 251 234 235
f 242 251 235
f 238 254 236
f 236 254 255
f 236 255 237
f 237 255 256
f 237 256 241
f 240 254 238
f 257 258 239
f 239 258 240
f 239 253 257
f 258 259 240
f 240 259 254
f 241 256 260
f 241 260 242
f 260 261 242
f 261 251 242
f 243 262 246
f 244 262 243
f 245 262 244
f 247 262 245
f 246 262 253
f 250 262 247
f 249 248 263
f 248 252 263
f 249 263 257
f 257 250 249
f 253 262 250
f 253 250 257
f 261 252 251
f 264 252 261
f 265 252 264
f 263 252 265
f 259 266 254
f 254 266 267
f 254 267 255
f 255 267 268
f 255 268 256
f 256 268 260
f 257 263 258
f 263 269 258
f 258 269 259
f 269 270 259
f 259 270 266
f 260 268 271
f 260 271 264
f 260 264 261
f 263 265 269
f 264 271 272
f 264 272 265
f 265 272 270
f 265 270 269
f 270 273 266
f 266 273 274
f 266 274 267
f 267 274 275
f 267 275 268
f 268 275 276
f 268 276 271
f 272 277 270
f 270 277 273
f 271 276 278
f 271 278 272
f 272 278 277
f 277 279 273
f 273 279 280
f 273 280 274
f 274 280 281
f 274 281 275
f 275 281 282
f 275 282 276
f 276 282 283
f 276 283 278
f 278 284 277
f 277 284 279
f 278 283 284
f 284 285 279
f 279 285 286
f 279 286 280
f 280 286 287
f 280 287 281
f 281 287 288
f 281 288 282
f 282 288 289
f 282 289 283
f 283 289 290
f 283 290 284
f 284 290 285
f 290 291 285
f 285 291 292
f 285 292 286
f 286 292 293
f 286 293 287
f 287 293 294
f 287 294 288
f 288 294 295
f 288 295 289
f 289 295 296
f 289 296 290
f 290 296 291
f 296 297 291
f 291 297 298
f 291 298 292
f 292 298 299
f 292 299 293
f 293 299 300
f 293 300 294
f 294 300 301
f 294 301 295
f 295 301 302
f 295 302 296
f 296 302 297
f 302 303 297
f 303 304 297
f 297 304 298
f 304 305 298
f 305 306 298
f 298 306 299
f 306 307 299
f 299 307 300
f 307 308 300
f 300 308 301
f 301 309 302
f 308 309 301
f 309 303 302
f 309 310 303
f 303 310 311
f 303 311 304
f 304 311 312
f 304 312 305
f 305 312 313
f 305 313 306
f 306 313 314
f 306 314 307
f 307 314 315
f 307 315 308
f 308 315 316
f 308 316 309
f 309 316 310
f 316 317 310
f 310 317 318
f 310 318 311
f 311 318 319
f 311 319 312
f 312 319 320
f 312 320 313
f 313 320 321
f 313 321 314
f 314 321 322
f 314 322 315
f 315 322 323
f 315 323 316
f 316 323 317
f 323 324 317
f 324 325 317
f 317 325 318
f 325 326 318
f 318 326 319
f 326 327 319
f 327 328 319
f 319 328 320
f 328 329 320
f 320 329 321
f 329 330 321
f 321 330 322
f 330 331 322
f 322 331 323
f 331 324 323
f 332 333 324
f 324 333 325
f 331 334 324
f 334 332 324
f 333 335 325
f 325 335 326
f 335 336 326
f 336 337 326
f 326 337 327
f 337 338 327
f 327 338 328
f 338 339 328
f 328 339 329
f 340 341 329
f 339 340 329
f 341 342 329
f 329 342 330
f 342 343 330
f 330 343 331
f 343 344 331
f 344 334 331
f 332 345 333
f 334 346 332
f 346 345 332
f 345 347 333
f 347 348 333
f 333 348 335
f 344 349 334
f 349 346 334
f 348 350 335
f 335 350 336
f 350 351 336
f 336 351 337
f 351 352 337
f 352 353 337
f 337 353 338
f 353 354 338
f 338 354 339
f 354 355 339
f 339 355 340
f 355 356 340
f 356 341 340
f 356 357 341
f 357 358 341
f 358 359 341
f 341 359 360
f 341 360 342
f 342 360 343
f 360 361 343
f 343 361 344
f 361 362 344
f 362 349 344
f 363 364 345
f 345 364 347
f 346 365 345
f 365 363 345
f 349 366 346
f 366 367 346
f 367 365 346
f 364 368 347
f 347 368 348
f 368 369 348
f 348 369 350
f 362 370 349
f 370 366 349
f 369 371 350
f 371 372 350
f 350 372 351
f 372 373 351
f 351 373 352
f 373 374 352
f 374 375 352
f 352 375 353
f 375 376 353
f 353 376 354
f 376 377 354
f 377 378 354
f 354 378 355
f 378 379 355
f 355 379 356
f 379 357 356
f 379 380 357
f 357 380 381
f 357 381 358
f 358 381 382
f 358 382 359
f 359 382 383
f 359 383 384
f 359 384 360
f 360 384 361
f 384 385 361
f 385 386 361
f 361 386 362
f 386 370 362
f 365 387 363
f 363 387 388
f 363 388 364
f 364 388 389
f 364 389 368
f 367 390 365
f 365 390 387
f 370 391 366
f 366 391 392
f 366 392 367
f 367 392 390
f 368 389 393
f 368 393 369
f 369 393 394
f 369 394 371
f 395 396 370
f 386 395 370
f 370 396 391
f 371 394 397
f 371 397 372
f 372 397 398
f 372 398 373
f 373 398 399
f 373 399 374
f 374 399 400
f 374 400 375
f 401 375 400
f 375 401 402
f 375 402 376
f 376 402 377
f 377 402 403
f 377 403 404
f 377 404 378
f 378 404 380
f 378 380 379
f 404 405 380
f 380 405 406
f 380 406 381
f 381 406 407
f 381 407 382
f 382 407 383
f 383 407 408
f 383 408 409
f 384 383 409
f 384 409 385
f 385 409 410
f 385 410 386
f 386 410 395
f 390 411 387
f 387 411 412
f 387 412 388
f 388 412 389
f 389 412 413
f 389 413 393
f 392 414 390
f 390 414 411
f 396 415 391
f 391 415 392
f 392 415 414
f 393 413 416
f 393 416 394
f 394 416 417
f 394 417 397
f 410 418 395
f 395 418 419
f 395 419 396
f 396 419 420
f 396 420 421
f 396 422 415
f 421 422 396
f 397 417 398
f 398 417 423
f 398 423 399
f 399 423 424
f 399 424 400
f 401 400 425
f 400 424 426
f 400 426 425
f 401 427 428
f 401 428 402
f 425 427 401
f 402 428 429
f 402 429 403
f 403 429 430
f 403 430 404
f 404 430 405
f 430 431 405
f 405 431 432
f 405 432 406
f 406 432 407
f 407 432 433
f 407 433 408
f 408 433 434
f 408 434 435
f 409 408 435
f 409 435 410
f 410 435 418
f 414 436 411
f 411 436 437
f 411 437 412
f 412 437 413
f 413 437 438
f 413 438 416
f 415 436 414
f 422 439 415
f 415 439 436
f 416 438 440
f 416 440 417
f 417 440 423
f 435 441 418
f 418 441 442
f 418 442 419
f 419 442 420
f 420 442 443
f 420 443 444
f 421 420 444
f 421 444 425
f 425 426 421
f 421 426 422
f 426 439 422
f 423 440 445
f 423 445 424
f 424 445 426
f 425 444 427
f 426 445 439
f 427 446 447
f 427 447 428
f 444 446 427
f 428 447 429
f 429 447 448
f 429 448 430
f 430 448 431
f 448 449 431
f 431 449 432
f 433 432 449
f 433 450 434
f 433 449 450
f 434 450 451
f 434 451 441
f 435 434 441
f 439 452 436
f 436 452 437
f 437 452 438
f 438 452 440
f 445 452 439
f 440 452 445
f 441 451 453
f 441 453 442
f 442 453 443
f 443 453 454
f 443 454 446
f 444 443 446
f 446 454 447
f 447 454 455
f 447 455 448
f 448 455 449
f 455 456 449
f 449 456 450
f 450 456 451
f 451 456 453
f 453 456 454
f 454 456 455
