v -0.00400 -0.42544   0.03000000
v -0.00400 -0.43182   0.02460000
v -0.00400 -0.42208   0.02406000
v -0.00400 -0.41066   0.02001000
v -0.00400 -0.39252   0.02244000
v -0.00400 -0.38244   0.02433000
v -0.00400 -0.32299   0.02109000
v -0.00400 -0.25547   0.02001000
v -0.00400 -0.20542   0.02001000
v -0.00400 -0.15436   0.02163000
v -0.00400 -0.12044   0.02433000
v -0.00400 -0.08382   0.02649000
v -0.00400 -0.07039   0.02595000
v -0.00400 -0.06568   0.03000000
v -0.00035 -0.42443   0.02497600
v 0.00171 -0.41536   0.02213700
v 0.00124 -0.40411   0.02279200
v 0.00013 -0.38782   0.02432100
v -0.00083 -0.36548   0.02563100
v 0.00084 -0.30116   0.02333700
v 0.00155 -0.22658   0.02235400
v 0.00124 -0.17637   0.02279200
v 0.00044 -0.12598   0.02388400
v 0.00013 -0.10146   0.02432100
v 0.00116 -0.08131   0.02290100
v -0.00043 -0.06871   0.02508500
v 0.00268 -0.41704   0.02783100
v 0.00884 -0.40864   0.02582800
v 0.00345 -0.39756   0.02758000
v 0.00216 -0.38312   0.02799700
v 0.00088 -0.34852   0.02841400
v 0.00319 -0.27932   0.02766400
v 0.00447 -0.19770   0.02724700
v 0.00345 -0.14731   0.02758000
v 0.00242 -0.09760   0.02791400
v 0.00396 -0.08248   0.02741300
v 0.00935 -0.07879   0.02566100
v 0.00370 -0.06703   0.02749700
v 0.00268 -0.41704   0.03216900
v 0.00884 -0.40864   0.03417100
v 0.00345 -0.39756   0.03242000
v 0.00216 -0.38312   0.03200200
v 0.00088 -0.34852   0.03158600
v 0.00319 -0.27932   0.03233600
v 0.00447 -0.19770   0.03275300
v 0.00345 -0.14731   0.03242000
v 0.00242 -0.09760   0.03208600
v 0.00396 -0.08248   0.03258700
v 0.00935 -0.07879   0.03433900
v 0.00370 -0.06703   0.03250300
v 0.00148 -0.41990   0.03753600
v 0.00409 -0.40982   0.04114000
v -0.00027 -0.39471   0.03513400
v -0.00051 -0.37001   0.03480500
v -0.00098 -0.30200   0.03415000
v -0.00090 -0.21835   0.03426000
v 0.00036 -0.16075   0.03600700
v 0.00155 -0.12195   0.03764500
v 0.00354 -0.09172   0.04037600
v 0.00386 -0.07778   0.04081300
v 0.00314 -0.07257   0.03983000
v -0.00019 -0.06434   0.03524200
v -0.00400 -0.42275   0.04161000
v -0.00400 -0.41100   0.04404000
v -0.00400 -0.39185   0.03486000
v -0.00400 -0.35691   0.03540000
v -0.00400 -0.25547   0.03513000
v -0.00400 -0.15739   0.03297000
v -0.00400 -0.12380   0.03594000
v -0.00400 -0.09659   0.04107000
v -0.00400 -0.08584   0.04890000
v -0.00400 -0.07308   0.04836000
v -0.00400 -0.06636   0.04026000
v -0.00400 -0.06165   0.03486000
v -0.00805 -0.42595   0.03557000
v -0.01066 -0.41503   0.03917500
v -0.00971 -0.40210   0.03786300
v -0.01011 -0.38093   0.03841000
v -0.00829 -0.32853   0.03589800
v -0.00646 -0.26958   0.03338600
v -0.00678 -0.21936   0.03382200
v -0.00844 -0.15604   0.03611600
v -0.01074 -0.11708   0.03928400
v -0.01122 -0.09441   0.03993900
v -0.01193 -0.06904   0.04092200
v -0.00709 -0.05914   0.03426000
v -0.00605 -0.42914   0.03066800
v -0.01222 -0.41906   0.03267000
v -0.01787 -0.41234   0.03450500
v -0.01864 -0.40495   0.03475600
v -0.01299 -0.40159   0.03292100
v -0.00914 -0.38177   0.03166900
v -0.00734 -0.31493   0.03108400
v -0.00785 -0.21550   0.03125200
v -0.00785 -0.14832   0.03125200
v -0.00991 -0.11573   0.03191900
v -0.01992 -0.07173   0.03517300
v -0.00939 -0.05661   0.03175200
v -0.00605 -0.42914   0.02933200
v -0.01222 -0.41906   0.02733000
v -0.01787 -0.41234   0.02549500
v -0.01864 -0.40495   0.02524400
v -0.01299 -0.40159   0.02707900
v -0.00914 -0.38177   0.02833100
v -0.00734 -0.31493   0.02891600
v -0.00785 -0.21550   0.02874800
v -0.00785 -0.14832   0.02874800
v -0.00991 -0.11573   0.02808100
v -0.01992 -0.07173   0.02482700
v -0.00939 -0.05661   0.02824800
v -0.00622 -0.43048   0.02694200
v -0.00829 -0.42057   0.02410200
v -0.01122 -0.41150   0.02006100
v -0.01074 -0.39874   0.02071600
v -0.00844 -0.39202   0.02388400
v -0.00821 -0.35238   0.02421100
v -0.00797 -0.28520   0.02453900
v -0.00813 -0.21046   0.02432100
v -0.00765 -0.15134   0.02497600
v -0.00749 -0.11809   0.02519500
v -0.00995 -0.07778   0.02180900
v -0.00686 -0.06350   0.02606800
f 1 2 15
f 2 3 16
f 3 4 17
f 4 5 18
f 5 6 19
f 6 7 20
f 7 8 21
f 8 9 22
f 9 10 23
f 10 11 24
f 11 12 25
f 12 13 26
f 13 14 26
f 1 15 27
f 15 16 28
f 16 17 29
f 17 18 30
f 18 19 31
f 19 20 32
f 20 21 33
f 21 22 34
f 22 23 35
f 23 24 36
f 24 25 37
f 25 26 38
f 26 14 38
f 1 27 39
f 27 28 40
f 28 29 41
f 29 30 42
f 30 31 43
f 31 32 44
f 32 33 45
f 33 34 46
f 34 35 47
f 35 36 48
f 36 37 49
f 37 38 50
f 38 14 50
f 1 39 51
f 39 40 52
f 40 41 53
f 41 42 54
f 42 43 55
f 43 44 56
f 44 45 57
f 45 46 58
f 46 47 59
f 47 48 60
f 48 49 61
f 49 50 62
f 50 14 62
f 1 51 63
f 51 52 64
f 52 53 65
f 53 54 66
f 54 55 67
f 55 56 68
f 56 57 69
f 57 58 70
f 58 59 71
f 59 60 72
f 60 61 73
f 61 62 74
f 62 14 74
f 1 63 75
f 63 64 76
f 64 65 77
f 65 66 78
f 66 67 79
f 67 68 80
f 68 69 81
f 69 70 82
f 70 71 83
f 71 72 84
f 72 73 85
f 73 74 86
f 74 14 86
f 1 75 87
f 75 76 88
f 76 77 89
f 77 78 90
f 78 79 91
f 79 80 92
f 80 81 93
f 81 82 94
f 82 83 95
f 83 84 96
f 84 85 97
f 85 86 98
f 86 14 98
f 1 87 99
f 87 88 100
f 88 89 101
f 89 90 102
f 90 91 103
f 91 92 104
f 92 93 105
f 93 94 106
f 94 95 107
f 95 96 108
f 96 97 109
f 97 98 110
f 98 14 110
f 1 99 111
f 99 100 112
f 100 101 113
f 101 102 114
f 102 103 115
f 103 104 116
f 104 105 117
f 105 106 118
f 106 107 119
f 107 108 120
f 108 109 121
f 109 110 122
f 110 14 122
f 1 111 2
f 111 112 3
f 112 113 4
f 113 114 5
f 114 115 6
f 115 116 7
f 116 117 8
f 117 118 9
f 118 119 10
f 119 120 11
f 120 121 12
f 121 122 13
f 122 14 13
