<?xml version="1.0"?>
<VTKFile type="PolyData" version="0.1" byte_order="LittleEndian" compressor="vtkZLibDataCompressor">
	<PolyData>
		<Piece NumberOfPoints="122" NumberOfVerts="0" NumberOfLines="0" NumberOfStrips="0" NumberOfPolys="130">
		<PointData Normals="Normals">
		<DataArray type="Float32" Name="Normals" NumberOfComponents="3" format="ascii">
			0.721285 -0.611425 0.325435
			0.474387 -0.785139 -0.398139
			0.153221 -0.269543 -0.950721
			0.396596 -0.125363 -0.909394
			-0.169342 0.230431 -0.958241
			-0.355801 0.175423 -0.917950
			0.089934 -0.013602 -0.995854
			0.131609 -0.003793 -0.991295
			0.197980 0.012112 -0.980131
			0.204599 0.033735 -0.978264
			0.349220 0.027779 -0.936629
			0.586785 0.045570 -0.808460
			0.665803 0.337372 -0.665498
			0.670559 0.739163 -0.063163
			0.812719 -0.534376 -0.232228
			0.622338 -0.170404 -0.763975
			0.757996 0.014801 -0.652091
			0.448022 0.136572 -0.883529
			0.620925 0.046752 -0.782475
			0.891675 -0.028809 -0.451759
			0.910373 -0.005007 -0.413758
			0.908046 0.017247 -0.418514
			0.776075 0.042785 -0.629187
			0.511405 0.017308 -0.859165
			0.536324 0.036534 -0.843222
			0.434643 0.459501 -0.774561
			0.827122 -0.562009 0.003934
			0.959895 -0.128250 -0.249307
			0.964574 0.184893 -0.188178
			0.961242 0.083694 -0.262695
			0.990672 0.010722 -0.135843
			0.996631 -0.025479 0.077961
			0.986705 -0.000040 0.162522
			0.979654 0.019791 0.199714
			0.987867 -0.009125 0.155034
			0.949592 -0.310126 -0.045796
			0.990477 -0.092933 -0.101579
			0.629220 0.769818 -0.107065
			0.779848 -0.615131 0.115978
			0.929233 -0.098335 0.356168
			0.896943 0.277822 0.343960
			0.968783 0.065038 0.239230
			0.885274 0.007110 0.465016
			0.650674 -0.024079 0.758976
			0.764883 0.003574 0.644160
			0.876526 0.020673 0.480910
			0.860869 -0.041389 0.507140
			0.547324 -0.494442 0.675251
			0.426449 -0.198869 0.882379
			0.476909 0.794206 0.376558
			0.639624 -0.660884 0.392573
			0.547647 -0.043133 0.835597
			0.495399 0.265195 0.827195
			0.641299 0.045000 0.765970
			0.177879 0.010063 0.984001
			-0.329266 -0.015007 0.944118
			0.044698 -0.019424 0.998812
			0.508004 -0.034187 0.860676
			0.586069 -0.063780 0.807747
			0.093055 -0.153126 0.983816
			-0.163819 0.178587 0.970191
			0.415491 0.802003 0.429138
			0.212108 -0.713246 0.668050
			-0.131868 0.076921 0.988278
			0.075737 0.223407 0.971778
			0.175710 0.004065 0.984434
			-0.422596 0.008505 0.906278
			-0.543410 -0.014298 0.839346
			0.057753 -0.063686 0.996298
			0.239186 -0.152435 0.958933
			-0.041978 -0.151017 0.987640
			-0.546721 0.310552 0.777594
			-0.266018 0.586738 0.764835
			0.434685 0.797710 0.417981
			-0.111925 -0.656292 0.746160
			-0.644700 0.006758 0.764406
			-0.264201 0.136114 0.954815
			-0.324324 0.002118 0.945943
			-0.891559 0.029749 0.451927
			-0.881634 -0.001342 0.471932
			-0.392330 -0.103376 0.913997
			-0.586106 -0.389958 0.710220
			-0.974279 -0.167587 -0.150648
			-0.971996 0.217116 0.089922
			-0.574730 0.572094 0.585144
			0.335281 0.804560 0.490172
			-0.051056 -0.871420 0.487873
			-0.868555 -0.393002 0.301932
			-0.844846 -0.203167 0.494933
			-0.914369 0.246057 0.321537
			-0.949806 0.310776 -0.035887
			-0.997966 0.060514 -0.020043
			-0.999977 -0.006476 -0.001903
			-0.943983 -0.021631 -0.329284
			-0.851433 -0.030899 -0.523551
			-0.942171 -0.096599 -0.320906
			-0.956627 0.289748 -0.030203
			0.099234 0.929916 0.354131
			0.105520 -0.982108 -0.155978
			-0.706804 -0.600137 -0.374520
			-0.750026 -0.412251 -0.517215
			-0.893761 0.423982 -0.146392
			-0.828728 0.470079 0.303703
			-0.988884 0.091757 0.116992
			-0.990703 0.010014 -0.135677
			-0.931096 -0.002561 -0.364764
			-0.796528 -0.032549 -0.603724
			-0.553377 -0.141755 -0.820780
			-0.277610 0.158971 -0.947450
			0.597582 0.755429 -0.268742
			0.233609 -0.933992 -0.270344
			-0.264349 -0.473248 -0.840331
			-0.108253 -0.275956 -0.955055
			-0.639238 0.372298 -0.672881
			-0.940493 0.339805 0.002047
			-0.947350 0.047323 -0.316685
			-0.854402 0.005678 -0.519581
			-0.709477 0.001359 -0.704727
			-0.368126 -0.011447 -0.929705
			0.279100 -0.069770 -0.957724
			0.667322 0.075067 -0.740976
			0.888593 0.349530 -0.297040
		</DataArray>
	</PointData>
	<Points>
		<DataArray type="Float32" NumberOfComponents="3" format="ascii">
			-0.005740 -0.425441 0.029716
			-0.005192 -0.431823 0.024376
			-0.005514 -0.422082 0.023759
			-0.005596 -0.410660 0.019624
			-0.006391 -0.392520 0.021880
			-0.006953 -0.382444 0.023656
			-0.008355 -0.322989 0.019773
			-0.009983 -0.255471 0.017797
			-0.011293 -0.205421 0.016996
			-0.013292 -0.154364 0.017527
			-0.015503 -0.120437 0.019173
			-0.017704 -0.083823 0.020107
			-0.017805 -0.070387 0.019297
			-0.020226 -0.065685 0.022515
			-0.001842 -0.424433 0.024910
			0.000085 -0.415363 0.022203
			-0.000824 -0.404111 0.022811
			-0.002662 -0.387819 0.024175
			-0.004608 -0.365481 0.025227
			-0.004850 -0.301155 0.022843
			-0.006362 -0.226584 0.021486
			-0.008438 -0.176366 0.021209
			-0.011245 -0.125979 0.021076
			-0.012512 -0.101459 0.020856
			-0.011499 -0.081305 0.019838
			-0.014411 -0.068708 0.020537
			0.000698 -0.417044 0.027951
			0.006653 -0.408645 0.026475
			0.000671 -0.397560 0.027786
			-0.001259 -0.383116 0.028052
			-0.004052 -0.348518 0.028137
			-0.004525 -0.279321 0.027477
			-0.006511 -0.197696 0.026833
			-0.009589 -0.147310 0.026088
			-0.012561 -0.097595 0.025045
			-0.011562 -0.082480 0.025169
			-0.006231 -0.078786 0.026592
			-0.012402 -0.067028 0.024819
			0.000391 -0.417044 0.032278
			0.005957 -0.408645 0.034789
			0.000187 -0.397560 0.032602
			-0.001746 -0.383116 0.032027
			-0.004601 -0.348518 0.031261
			-0.005807 -0.279321 0.031970
			-0.008659 -0.197696 0.031903
			-0.011809 -0.147310 0.030389
			-0.014746 -0.097595 0.028599
			-0.014372 -0.082480 0.029514
			-0.010984 -0.078786 0.033852
			-0.015218 -0.067028 0.028958
			-0.001025 -0.419899 0.037551
			0.000721 -0.409821 0.041337
			-0.003933 -0.394706 0.034914
			-0.005417 -0.370015 0.034385
			-0.009204 -0.301996 0.032901
			-0.013224 -0.218354 0.031618
			-0.015541 -0.160746 0.032482
			-0.017179 -0.121949 0.033533
			-0.018456 -0.091717 0.036085
			-0.019183 -0.077777 0.036230
			-0.019514 -0.072571 0.034864
			-0.020096 -0.064341 0.028951
			-0.006583 -0.422753 0.041280
			-0.007506 -0.410996 0.043580
			-0.007761 -0.391850 0.034220
			-0.009634 -0.356915 0.034298
			-0.014652 -0.255471 0.032178
			-0.018261 -0.157387 0.027741
			-0.021093 -0.123797 0.029373
			-0.024971 -0.096588 0.032851
			-0.029718 -0.085840 0.039039
			-0.030162 -0.073075 0.038012
			-0.025982 -0.066356 0.031013
			-0.023128 -0.061653 0.026388
			-0.010078 -0.425945 0.035049
			-0.013529 -0.415029 0.038280
			-0.013201 -0.402096 0.036792
			-0.014827 -0.380934 0.036847
			-0.015386 -0.328532 0.033475
			-0.015818 -0.269580 0.030102
			-0.018497 -0.219362 0.029116
			-0.023697 -0.156043 0.028532
			-0.028903 -0.117079 0.028693
			-0.030614 -0.094405 0.027996
			-0.032802 -0.069043 0.027223
			-0.025422 -0.059135 0.024037
			-0.007662 -0.429136 0.030306
			-0.014404 -0.419059 0.031766
			-0.020499 -0.412340 0.033009
			-0.021655 -0.404950 0.032960
			-0.016024 -0.401592 0.031555
			-0.012980 -0.381773 0.030297
			-0.014073 -0.314928 0.028671
			-0.018727 -0.215499 0.026223
			-0.021277 -0.148318 0.024200
			-0.024549 -0.115734 0.022678
			-0.036127 -0.071731 0.018134
			-0.025950 -0.056615 0.020567
			-0.007592 -0.429136 0.028972
			-0.014042 -0.419059 0.026439
			-0.019797 -0.412340 0.024026
			-0.020809 -0.404950 0.023486
			-0.015475 -0.401592 0.025738
			-0.012567 -0.381773 0.026984
			-0.013590 -0.314928 0.026557
			-0.017813 -0.215499 0.023892
			-0.020132 -0.148318 0.021973
			-0.022628 -0.115734 0.019355
			-0.030368 -0.071731 0.009539
			-0.023934 -0.056615 0.017701
			-0.007579 -0.430480 0.026592
			-0.009847 -0.420571 0.023507
			-0.012774 -0.411500 0.019110
			-0.012729 -0.398736 0.019560
			-0.010980 -0.392018 0.022829
			-0.012142 -0.352382 0.022496
			-0.014206 -0.285200 0.021536
			-0.016599 -0.210460 0.019545
			-0.018141 -0.151340 0.018794
			-0.019029 -0.118086 0.018133
			-0.020291 -0.077777 0.012765
			-0.020425 -0.063501 0.017590
		</DataArray>
	</Points>
			<Polys>
				<DataArray type="Int32" Name="connectivity" format="ascii">
			-0.010752 -0.338330 -0.000382
			-0.011359 -0.372526 0.000259
			-0.024141 -0.407746 0.003425
			-0.021140 -0.412876 0.002993
			-0.009539 -0.412876 0.000576
			-0.005673 -0.420056 -0.000170
			-0.014837 -0.031083 0.006304
			-0.026701 -0.046642 0.009849
			-0.025762 -0.054165 0.009920
			-0.019150 -0.065450 0.008446
			-0.010390 -0.079642 0.006107
			-0.005759 -0.134183 0.005246
			-0.004310 -0.202403 0.005332
			-0.001970 -0.287377 0.004673
			-0.005363 -0.353205 0.008243
			-0.008829 -0.381415 0.012119
			-0.013534 -0.406550 0.017784
			-0.010187 -0.414073 0.014614
			-0.004963 -0.408089 0.008966
			-0.002065 -0.410312 0.005987
					20 21 33 32 
					21 22 34 33 
					22 23 35 34 
					23 24 36 35 
					24 25 37 36 
					25 13 37 
					0 26 38 
					26 27 39 38 
					27 28 40 39 
					28 29 41 40 
					29 30 42 41 
					30 31 43 42 
					31 32 44 43 
					32 33 45 44 
					33 34 46 45 
					34 35 47 46 
					35 36 48 47 
					36 37 49 48 
					37 13 49 
					0 38 50 
					38 39 51 50 
					39 40 52 51 
					40 41 53 52 
					41 42 54 53 
					42 43 55 54 
					43 44 56 55 
					44 45 57 56 
					45 46 58 57 
					46 47 59 58 
					47 48 60 59 
					48 49 61 60 
					49 13 61 
					0 50 62 
					50 51 63 62 
					51 52 64 63 
					52 53 65 64 
					53 54 66 65 
					54 55 67 66 
					55 56 68 67 
					56 57 69 68 
					57 58 70 69 
					58 59 71 70 
					59 60 72 71 
					60 61 73 72 
					61 13 73 
					0 62 74 
					62 63 75 74 
					63 64 76 75 
					64 65 77 76 
					65 66 78 77 
					66 67 79 78 
					67 68 80 79 
					68 69 81 80 
					69 70 82 81 
					70 71 83 82 
					71 72 84 83 
					72 73 85 84 
					73 13 85 
					0 74 86 
					74 75 87 86 
					75 76 88 87 
					76 77 89 88 
					77 78 90 89 
					78 79 91 90 
					79 80 92 91 
					80 81 93 92 
					81 82 94 93 
					82 83 95 94 
					83 84 96 95 
					84 85 97 96 
					85 13 97 
					0 86 98 
					86 87 99 98 
					87 88 100 99 
					88 89 101 100 
					89 90 102 101 
					90 91 103 102 
					91 92 104 103 
					92 93 105 104 
					93 94 106 105 
					94 95 107 106 
					95 96 108 107 
					96 97 109 108 
					97 13 109 
					0 98 110 
					98 99 111 110 
					99 100 112 111 
					100 101 113 112 
					101 102 114 113 
					102 103 115 114 
					103 104 116 115 
					104 105 117 116 
					105 106 118 117 
					106 107 119 118 
					107 108 120 119 
					108 109 121 120 
					109 13 121 
					0 110 1 
					110 111 2 1 
					111 112 3 2 
					112 113 4 3 
					113 114 5 4 
					114 115 6 5 
					115 116 7 6 
					116 117 8 7 
					117 118 9 8 
					118 119 10 9 
					119 120 11 10 
					120 121 12 11 
					121 13 12 
				</DataArray>
				<DataArray type="Int32" Name="offsets" format="ascii">
					3 7 11 15 19 23 27 31 35 39 43 47 50 53 57 61 65 69 73 77 81 85 89 93 97 100 103 107 111 115 119 123 127 131 135 139 143 147 150 153 157 161 165 169 173 177 181 185 189 193 197 200 203 207 211 215 219 223 227 231 235 239 243 247 250 253 257 261 265 269 273 277 281 285 289 293 297 300 303 307 311 315 319 323 327 331 335 339 343 347 350 353 357 361 365 369 373 377 381 385 389 393 397 400 403 407 411 415 419 423 427 431 435 439 443 447 450 453 457 461 465 469 473 477 481 485 489 493 497 500 
				</DataArray>
			</Polys>
		</Piece>
	</PolyData>
</VTKFile>
