v -0.01441 -0.01360  -0.01618000
v -0.00009 0.00903  -0.02087500
v -0.01311 0.00331  -0.02056800
v -0.01547 0.01563  -0.00853100
v -0.00482 0.01511  -0.01798600
v -0.00278 0.01990  -0.01243600
v 0.00588 0.01624  -0.01668200
v 0.00356 -0.01973  -0.01608800
v -0.00706 0.02236   0.00032700
v -0.00558 0.01691   0.01605200
v 0.00782 0.02177   0.00533500
v -0.02366 0.00097  -0.00616400
v -0.01905 0.01264   0.00755100
v -0.01476 0.01004   0.01696300
v -0.02322 -0.00669   0.00509100
v 0.00160 0.01036   0.02232100
v 0.01535 -0.02097  -0.00397800
v 0.02122 -0.01508  -0.00416700
v 0.02460 -0.00420   0.00841500
v 0.02085 0.01285   0.00200100
v 0.02380 0.00215  -0.00774200
v 0.01620 -0.00470   0.02009900
v 0.01460 0.01002   0.01840200
v 0.02021 -0.01549   0.00768900
v 0.01050 0.01940  -0.00765900
v 0.01515 0.01405  -0.01257500
v 0.01322 0.00836  -0.01691000
v 0.00357 0.02195  -0.00779400
v -0.00837 -0.01957  -0.01405400
v -0.01978 -0.02130   0.02870200
v -0.03887 -0.03555   0.03655300
v -0.02391 -0.02001   0.04053500
v -0.01264 -0.00667   0.03480000
v -0.02140 -0.00645   0.03732600
v -0.00611 0.00018   0.05215300
v -0.00030 -0.00393   0.04657300
v -0.02770 -0.00053   0.03308400
v -0.01497 -0.03635   0.01129400
v -0.00080 -0.02294   0.00341300
v -0.01107 -0.02116   0.00191500
v 0.00680 -0.00779   0.02621000
v 0.00720 -0.01299   0.04092100
v 0.00673 -0.02181   0.03144600
v 0.00992 -0.01779   0.01733900
v -0.00691 -0.00185   0.02313000
v 0.00106 -0.03766   0.01699500
v -0.01672 -0.00580   0.01567200
v -0.01704 -0.01585   0.00816400
v 0.00743 -0.02110   0.00959000
v -0.00868 -0.03801   0.01207000
v -0.02088 -0.01261  -0.00646400
v -0.00974 -0.03380   0.06356500
v -0.00013 -0.01775   0.05262100
v -0.03266 -0.01988   0.05784400
v -0.03810 -0.02076   0.03668200
v -0.02180 0.00298   0.04503500
v -0.03463 -0.00017   0.03401500
v -0.03077 -0.00344   0.05128100
v -0.02002 -0.06541   0.01643000
v 0.00189 -0.05044   0.02368400
v -0.02199 -0.06866   0.02268300
v -0.02660 -0.06356   0.02757000
v -0.02817 -0.05536   0.04968300
v -0.00906 -0.05378   0.05356500
v -0.00480 -0.03308   0.05776800
v 0.00183 -0.05205   0.04040600
v -0.01032 -0.05218   0.01704500
v -0.01870 -0.05908   0.00975200
v -0.02111 -0.05259   0.00684300
v -0.02930 -0.05056   0.01459200
v -0.00986 -0.12267   0.03841100
v -0.00910 -0.12240   0.04609300
v -0.01222 -0.08939   0.05236300
v 0.00174 -0.12240   0.05069900
v 0.00504 -0.21114   0.02339800
v 0.01055 -0.11680   0.02137500
v -0.01596 -0.07656   0.02590500
v 0.01788 -0.11825   0.03299300
v 0.02402 -0.20857   0.01365900
v 0.02860 -0.33875  -0.00422300
v 0.01310 -0.33749  -0.00201100
v 0.03158 -0.20982   0.03058200
v 0.01969 -0.21194   0.04159600
v 0.03458 -0.34005   0.01852700
v 0.00769 -0.33654   0.01851700
v 0.02214 -0.33997   0.02531500
v -0.01882 -0.39666  -0.01718500
v -0.02585 -0.40583  -0.02581900
v -0.01917 -0.40637  -0.01382100
v -0.00664 -0.42394  -0.01657200
v -0.01325 -0.42603  -0.02570700
v -0.01071 -0.42101  -0.04021600
v -0.01268 -0.39291  -0.02343800
v -0.00422 -0.40748  -0.01336600
v -0.00811 -0.39559  -0.01536000
v -0.00359 -0.39575  -0.00672300
v 0.00323 -0.38907  -0.02004100
v 0.00830 -0.41866  -0.00163300
v 0.01154 -0.42962  -0.01563700
v 0.02233 -0.41668   0.00025300
v 0.02942 -0.42251  -0.01400000
v 0.00732 -0.37544   0.00341900
v 0.01356 -0.37246  -0.01904000
v 0.03000 -0.37907  -0.00233900
v 0.03533 -0.41074  -0.01138800
v 0.03257 -0.40150   0.00240900
v 0.01678 -0.42712  -0.02783600
v 0.00194 -0.42902  -0.03366300
v 0.00884 -0.40200  -0.04170500
v -0.00676 -0.39578  -0.03997200
v 0.00562 -0.38701  -0.03595100
v -0.01764 -0.39757  -0.03791500
v 0.01165 -0.38874  -0.03253700
v -0.02344 -0.40192   0.02744300
v -0.02301 -0.41369   0.01761200
v -0.02280 -0.40280   0.01517900
v -0.01743 -0.41180   0.00665700
v -0.01468 -0.39172   0.01477300
v 0.00860 -0.42518   0.01556800
v -0.00721 -0.42360   0.03314500
v -0.01560 -0.39493   0.02867800
v -0.00108 -0.38639   0.01388500
v 0.00593 -0.37697   0.02492500
v -0.00698 -0.39615   0.00252400
v 0.03203 -0.38051   0.01965900
v 0.01419 -0.40460   0.03374200
v 0.03809 -0.40325   0.02167900
v 0.02624 -0.42248   0.02409200
v 0.03358 -0.41149   0.01206200
v -0.00395 -0.39084   0.03691900
v -0.02062 -0.41587   0.03053300
v -0.00425 -0.40519   0.03789200
f 3 2 1
f 6 5 4
f 6 7 5
f 2 8 1
f 6 4 9
f 11 9 10
f 4 12 13
f 9 13 10
f 13 14 10
f 13 15 14
f 10 14 16
f 8 18 17
f 21 20 19
f 19 23 22
f 19 22 24
f 11 10 23
f 25 11 20
f 18 24 17
f 20 23 19
f 20 11 23
f 27 26 21
f 27 21 18
f 26 7 25
f 23 10 16
f 22 23 16
f 7 27 2
f 7 6 28
f 28 9 11
f 6 9 28
f 13 12 15
f 26 20 21
f 25 28 11
f 3 1 12
f 8 29 1
f 1 29 12
f 27 18 8
f 21 19 18
f 18 19 24
f 5 2 3
f 4 3 12
f 30 31 32
f 33 30 32
f 33 32 34
f 33 35 36
f 34 37 35
f 40 39 38
f 41 42 43
f 44 41 43
f 41 45 42
f 44 43 46
f 42 45 36
f 45 33 36
f 47 30 33
f 47 48 30
f 49 46 50
f 39 49 50
f 45 47 33
f 39 50 38
f 40 38 48
f 48 38 30
f 51 29 40
f 51 40 48
f 15 51 48
f 45 14 47
f 16 14 45
f 15 48 47
f 14 15 47
f 16 45 41
f 22 16 41
f 22 41 44
f 24 22 44
f 8 17 39
f 8 39 29
f 29 39 40
f 24 44 49
f 17 24 49
f 17 49 39
f 35 52 36
f 52 53 36
f 35 54 52
f 55 37 34
f 56 37 57
f 30 38 31
f 34 32 55
f 58 54 35
f 56 58 35
f 54 55 31
f 54 57 55
f 56 57 58
f 55 57 37
f 35 37 56
f 33 34 35
f 59 60 61
f 31 62 63
f 63 62 61
f 53 42 36
f 52 64 65
f 65 64 66
f 60 65 66
f 42 65 43
f 60 67 46
f 50 46 67
f 67 60 59
f 68 67 59
f 69 38 67
f 50 67 38
f 69 70 38
f 69 68 70
f 68 69 70
f 61 70 59
f 70 62 31
f 63 64 52
f 53 65 42
f 62 70 61
f 70 68 59
f 63 71 72
f 73 63 72
f 64 63 73
f 64 73 74
f 71 76 75
f 71 75 72
f 60 77 61
f 77 76 71
f 63 77 71
f 61 77 63
f 64 78 66
f 74 78 64
f 79 80 81
f 75 79 81
f 66 78 60
f 60 78 76
f 76 78 79
f 76 79 75
f 74 82 78
f 78 82 79
f 79 82 80
f 72 75 83
f 74 72 83
f 74 83 82
f 84 82 83
f 80 82 84
f 83 75 85
f 84 83 86
f 83 85 86
f 75 81 85
f 73 72 74
f 87 88 89
f 89 88 90
f 91 88 92
f 93 88 87
f 89 90 94
f 89 94 95
f 95 94 96
f 97 95 96
f 90 98 94
f 94 98 96
f 99 100 98
f 90 99 98
f 101 100 99
f 96 102 97
f 103 102 81
f 81 102 85
f 97 102 103
f 80 104 103
f 103 104 105
f 105 104 106
f 100 105 106
f 101 105 100
f 91 99 90
f 95 93 87
f 108 107 99
f 97 93 95
f 92 109 107
f 92 110 109
f 111 109 110
f 93 111 110
f 108 91 92
f 93 112 88
f 92 107 108
f 110 112 93
f 113 111 103
f 107 105 101
f 99 107 101
f 103 81 80
f 107 109 105
f 108 107 92
f 105 113 103
f 97 111 93
f 111 97 103
f 111 97 103
f 109 111 113
f 116 115 114
f 117 115 116
f 118 117 116
f 118 116 114
f 119 120 115
f 119 115 117
f 121 118 114
f 121 122 118
f 123 122 121
f 124 122 96
f 124 117 118
f 124 118 122
f 124 98 117
f 122 102 96
f 123 102 122
f 102 123 85
f 125 86 123
f 119 98 100
f 85 123 86
f 80 84 104
f 84 125 104
f 104 125 106
f 84 86 125
f 125 123 126
f 127 125 126
f 128 120 119
f 106 127 129
f 100 106 129
f 100 129 119
f 129 128 119
f 123 130 126
f 130 123 121
f 115 131 114
f 130 121 132
f 132 121 114
f 131 120 132
f 131 132 114
f 126 132 120
f 130 132 126
f 106 125 127
f 106 125 127
f 120 131 115
f 129 127 128
f 128 127 126
f 128 126 120
f 119 117 98
f 27 8 2
f 7 26 27
f 2 5 7
f 3 4 5
f 28 25 7
f 26 25 20
f 4 13 9
f 12 29 51
f 51 15 12
f 58 57 54
f 52 31 63
f 31 52 54
f 53 52 65
f 65 60 43
f 60 46 43
f 38 40 48
f 46 49 44
f 38 70 31
f 31 55 32
f 67 68 69
f 77 60 76
f 110 92 112
f 112 92 88
f 87 89 95
f 88 91 90
f 105 109 113
f 108 99 91
f 96 98 124
