<?xml version="1.0"?>
<VTKFile type="PolyData" version="0.1" byte_order="LittleEndian" compressor="vtkZLibDataCompressor">
	<PolyData>
		<Piece NumberOfPoints="132" NumberOfVerts="0" NumberOfLines="0" NumberOfStrips="0" NumberOfPolys="265">
		<PointData Normals="Normals">
		<DataArray type="Float32" Name="Normals" NumberOfComponents="3" format="ascii">
			-0.441657 -0.416334 -0.794737
			0.106387 0.092638 -0.990000
			-0.499507 0.195000 -0.844079
			-0.633301 0.669388 -0.388393
			-0.201177 0.599399 -0.774757
			-0.153636 0.872120 -0.464546
			0.266428 0.666638 -0.696140
			0.176557 -0.602918 -0.778022
			-0.295259 0.955359 0.010584
			-0.187511 0.813127 0.551058
			0.286364 0.932848 0.218612
			-0.956586 -0.002194 -0.291444
			-0.794437 0.569787 0.210267
			-0.640978 0.310243 0.702066
			-0.943521 -0.125227 0.306733
			0.016480 0.389302 0.920963
			0.411367 -0.905406 -0.104961
			0.792062 -0.427913 -0.435350
			0.964329 -0.027862 0.263238
			0.797145 0.599830 0.069013
			0.907543 0.123594 -0.401362
			0.649928 -0.109134 0.752119
			0.530698 0.541475 0.652047
			0.709461 -0.644567 0.284952
			0.475173 0.846602 -0.239743
			0.658698 0.573704 -0.486806
			0.519919 0.069488 -0.851385
			0.150298 0.952659 -0.264295
			-0.459277 -0.808123 -0.368783
			-0.906217 0.375042 -0.195230
			-0.992027 0.080483 -0.096975
			-0.353889 0.207152 -0.912058
			-0.509604 0.814135 -0.278368
			0.206511 0.085667 -0.974686
			0.327519 0.911642 0.248275
			0.547978 0.740904 0.388305
			0.302855 0.400564 -0.864770
			-0.423726 -0.023748 -0.905479
			0.073486 -0.899561 -0.430568
			-0.391927 -0.868220 -0.304284
			0.716141 0.225129 0.660651
			0.920724 0.280848 0.270912
			0.983657 -0.171208 0.055742
			0.838835 -0.459096 0.292551
			-0.168502 0.757187 0.631090
			0.724619 -0.396415 -0.563722
			-0.887701 0.205697 0.411919
			-0.925946 -0.361885 0.107998
			0.543115 -0.816777 -0.194684
			0.226368 -0.475529 -0.850076
			-0.817086 -0.540004 -0.201906
			0.267946 -0.064111 0.961298
			0.742522 0.141099 0.654792
			-0.706107 0.112700 0.699079
			-0.385698 -0.128587 -0.913620
			-0.064074 0.996803 0.047721
			-0.748419 0.643846 -0.159157
			-0.464527 0.651823 0.599452
			0.038942 -0.722576 -0.690194
			0.757302 -0.174987 -0.629184
			-0.550128 -0.778718 -0.301592
			-0.846145 -0.526784 0.080845
			-0.721833 -0.380170 0.578297
			0.538189 -0.140575 0.831018
			0.915329 -0.138404 0.378175
			0.963827 0.100684 0.246780
			0.450540 -0.309576 -0.837363
			0.270976 -0.508299 -0.817437
			0.242223 0.120590 -0.962697
			-0.874679 -0.172816 -0.452849
			-0.970809 -0.206666 -0.121729
			-0.558861 -0.241706 0.793254
			-0.108279 -0.119994 0.986853
			0.505935 -0.034674 0.861874
			-0.985390 -0.063028 0.158221
			-0.267542 0.012294 -0.963468
			-0.687682 -0.328132 -0.647629
			0.976724 0.163418 -0.138940
			-0.055992 0.154987 -0.986329
			0.056422 0.145924 -0.987686
			-0.980956 0.180372 -0.072052
			0.974240 0.075454 -0.212516
			0.332838 -0.128671 0.934164
			0.949305 -0.031829 -0.312744
			-0.464594 0.026669 0.885122
			0.699887 -0.035172 0.713388
			-0.030924 0.660844 0.749886
			-0.618681 -0.007679 0.785605
			0.383401 -0.018030 0.923405
			0.200847 -0.535322 0.820421
			-0.267889 -0.841629 0.468931
			-0.895321 -0.374944 -0.240450
			-0.269626 0.906394 0.325195
			0.266486 -0.123216 0.955931
			0.244734 0.593571 0.766667
			-0.591694 0.297047 0.749440
			-0.423421 0.742540 0.518989
			-0.298149 -0.809593 0.505634
			0.249334 -0.952569 0.174484
			0.496345 -0.825224 -0.269530
			0.500722 -0.755207 -0.423012
			-0.760872 0.359642 0.540122
			-0.645440 0.630155 -0.431637
			0.464881 0.084469 -0.881335
			0.406433 -0.057357 -0.911879
			0.570203 -0.072036 -0.818340
			-0.077244 -0.631881 -0.771207
			-0.192868 -0.981224 0.000697
			-0.384215 0.096284 -0.918210
			-0.754198 0.523914 -0.395854
			-0.561345 0.807671 -0.180442
			-0.860207 0.508238 0.041685
			-0.010658 0.379355 -0.925190
			-0.301754 0.316881 0.899184
			-0.664467 -0.573389 0.479278
			-0.875045 0.244522 0.417738
			-0.968771 -0.245208 0.036817
			-0.662025 0.700793 0.265727
			-0.191299 -0.967071 -0.167863
			0.376369 -0.794413 0.476711
			-0.115040 0.669890 0.733494
			-0.561070 0.746918 0.356809
			0.158340 0.544994 0.823353
			-0.944954 0.313471 0.093791
			0.950794 0.155532 -0.267957
			0.926349 0.035726 0.374968
			0.812677 -0.046834 -0.580830
			0.648853 -0.744215 -0.158538
			0.263623 -0.611071 -0.746388
			0.562982 0.382356 0.732705
			0.006355 -0.358380 0.933554
			0.567288 0.012873 0.823420
		</DataArray>
	</PointData>
	<Points>
		<DataArray type="Float32" NumberOfComponents="3" format="ascii">
			-0.014864 -0.013599 -0.015765
			0.000308 0.009028 -0.020873
			-0.012972 0.003311 -0.020658
			-0.015181 0.015633 -0.009030
			-0.004253 0.015113 -0.018129
			-0.002266 0.019901 -0.012541
			0.006439 0.016242 -0.016474
			0.002892 -0.019732 -0.016221
			-0.007070 0.022360 -0.000002
			-0.006141 0.016913 0.015845
			0.007573 0.021768 0.005684
			-0.023648 0.000967 -0.006212
			-0.019247 0.012640 0.007047
			-0.015111 0.010038 0.016651
			-0.023147 -0.006689 0.005414
			0.001116 0.010357 0.022350
			0.015161 -0.020967 -0.004645
			0.021075 -0.015083 -0.004832
			0.024672 -0.004204 0.008199
			0.020793 0.012847 0.002559
			0.023829 0.002147 -0.007635
			0.016394 -0.004698 0.019939
			0.014213 0.010018 0.018703
			0.020447 -0.015490 0.007033
			0.010804 0.019403 -0.007228
			0.015510 0.014049 -0.012126
			0.013516 0.008363 -0.016677
			0.003922 0.021949 -0.007623
			-0.008932 -0.019571 -0.013701
			-0.018491 -0.021302 0.029552
			-0.036061 -0.035552 0.039330
			-0.022203 -0.020013 0.041497
			-0.012159 -0.006672 0.034972
			-0.020897 -0.006447 0.037610
			-0.006125 0.000178 0.052151
			0.000085 -0.003930 0.046574
			-0.027667 -0.000529 0.033115
			-0.014072 -0.036348 0.012394
			-0.000635 -0.022939 0.003447
			-0.010980 -0.021155 0.002401
			0.007228 -0.007788 0.026096
			0.008304 -0.012994 0.040711
			0.008149 -0.021807 0.031108
			0.010558 -0.017790 0.016959
			-0.006818 -0.001849 0.023156
			0.002393 -0.037655 0.016859
			-0.016530 -0.005802 0.015873
			-0.016757 -0.015848 0.008722
			0.007845 -0.021097 0.009254
			-0.007695 -0.038008 0.012719
			-0.021047 -0.012612 -0.005913
			-0.005241 -0.033800 0.064093
			0.001813 -0.017752 0.052590
			-0.030234 -0.019884 0.059147
			-0.036479 -0.020758 0.038295
			-0.022078 0.002975 0.044899
			-0.034613 -0.000166 0.034027
			-0.030405 -0.003437 0.051500
			-0.017601 -0.065406 0.018998
			0.004362 -0.050437 0.023355
			-0.018528 -0.068660 0.025586
			-0.022726 -0.063557 0.030841
			-0.022261 -0.055362 0.052595
			-0.003014 -0.053777 0.054242
			-0.000813 -0.033083 0.057962
			0.006191 -0.052047 0.039971
			-0.008410 -0.052184 0.018064
			-0.017365 -0.059084 0.011975
			-0.020237 -0.052592 0.009111
			-0.027607 -0.050557 0.017593
			0.000172 -0.122673 0.039656
			0.002823 -0.122405 0.046898
			-0.002312 -0.089393 0.053721
			0.014477 -0.122401 0.048619
			0.014526 -0.211145 0.019022
			0.015393 -0.116796 0.018202
			-0.011644 -0.076564 0.028112
			0.025385 -0.118250 0.027635
			0.027540 -0.208574 0.002273
			0.019024 -0.338751 -0.021766
			0.008690 -0.337486 -0.010005
			0.041562 -0.209816 0.014331
			0.035578 -0.211943 0.029189
			0.038314 -0.340055 -0.008440
			0.017823 -0.336543 0.009185
			0.033285 -0.339969 0.004817
			-0.025388 -0.396660 0.002202
			-0.036471 -0.405832 0.002228
			-0.023054 -0.406372 0.005211
			-0.017020 -0.423938 -0.005385
			-0.028302 -0.426032 -0.005947
			-0.037773 -0.421015 -0.017469
			-0.025779 -0.392909 -0.006750
			-0.012824 -0.407482 -0.005659
			-0.016782 -0.395588 -0.004477
			-0.007375 -0.395753 -0.001926
			-0.012300 -0.389068 -0.016149
			0.004085 -0.418658 -0.007406
			-0.004989 -0.429623 -0.018782
			0.014621 -0.416680 -0.016880
			0.007937 -0.422512 -0.031596
			0.007605 -0.375443 -0.002739
			-0.003663 -0.372458 -0.023086
			0.019455 -0.379072 -0.022956
			0.014559 -0.410738 -0.034146
			0.023610 -0.401500 -0.022570
			-0.011074 -0.427124 -0.030555
			-0.025028 -0.429016 -0.022595
			-0.025080 -0.401997 -0.034472
			-0.033945 -0.395785 -0.022164
			-0.022066 -0.387013 -0.028933
			-0.039867 -0.397568 -0.012628
			-0.015535 -0.388739 -0.030873
			0.004703 -0.401921 0.035783
			-0.001604 -0.413686 0.028931
			-0.003931 -0.402803 0.027107
			-0.006359 -0.411801 0.017540
			0.000708 -0.391722 0.020816
			0.017495 -0.425185 0.003188
			0.021027 -0.423603 0.026616
			0.010419 -0.394929 0.030938
			0.009266 -0.386388 0.010397
			0.021821 -0.376971 0.013427
			-0.002879 -0.396154 0.006841
			0.036484 -0.380506 -0.009025
			0.034634 -0.404597 0.011847
			0.041559 -0.403247 -0.013904
			0.035284 -0.422484 -0.004887
			0.031090 -0.411492 -0.017498
			0.024144 -0.390844 0.028208
			0.009924 -0.415872 0.035480
			0.025504 -0.405188 0.028344
		</DataArray>
	</Points>
			<Polys>
				<DataArray type="Int32" Name="connectivity" format="ascii">
					2 1 0 
					5 4 3 
					5 6 4 
					1 7 0 
					5 3 8 
					10 8 9 
					3 11 12 
					8 12 9 
					12 13 9 
					12 14 13 
					9 13 15 
					7 17 16 
					20 19 18 
					18 22 21 
					18 21 23 
					10 9 22 
					24 10 19 
					17 23 16 
					19 22 18 
					19 10 22 
					26 25 20 
					26 20 17 
					25 6 24 
					22 9 15 
					21 22 15 
					6 26 1 
					6 5 27 
					27 8 10 
					5 8 27 
					12 11 14 
					25 19 20 
					24 27 10 
					2 0 11 
					7 28 0 
					0 28 11 
					26 17 7 
					20 18 17 
					17 18 23 
					4 1 2 
					3 2 11 
					29 30 31 
					32 29 31 
					32 31 33 
					32 34 35 
					33 36 34 
					39 38 37 
					40 41 42 
					43 40 42 
					40 44 41 
					43 42 45 
					41 44 35 
					44 32 35 
					46 29 32 
					46 47 29 
					48 45 49 
					38 48 49 
					44 46 32 
					38 49 37 
					39 37 47 
					47 37 29 
					50 28 39 
					50 39 47 
					14 50 47 
					44 13 46 
					15 13 44 
					14 47 46 
					13 14 46 
					15 44 40 
					21 15 40 
					21 40 43 
					23 21 43 
					7 16 38 
					7 38 28 
					28 38 39 
					23 43 48 
					16 23 48 
					16 48 38 
					34 51 35 
					51 52 35 
					34 53 51 
					54 36 33 
					55 36 56 
					29 37 30 
					33 31 54 
					57 53 34 
					55 57 34 
					53 54 30 
					53 56 54 
					55 56 57 
					54 56 36 
					34 36 55 
					32 33 34 
					58 59 60 
					30 61 62 
					62 61 60 
					52 41 35 
					51 63 64 
					64 63 65 
					59 64 65 
					41 64 42 
					59 66 45 
					49 45 66 
					66 59 58 
					67 66 58 
					68 37 66 
					49 66 37 
					68 69 37 
					68 67 69 
					67 68 69 
					60 69 58 
					69 61 30 
					62 63 51 
					52 64 41 
					61 69 60 
					69 67 58 
					62 70 71 
					72 62 71 
					63 62 72 
					63 72 73 
					70 75 74 
					70 74 71 
					59 76 60 
					76 75 70 
					62 76 70 
					60 76 62 
					63 77 65 
					73 77 63 
					78 79 80 
					74 78 80 
					65 77 59 
					59 77 75 
					75 77 78 
					75 78 74 
					73 81 77 
					77 81 78 
					78 81 79 
					71 74 82 
					73 71 82 
					73 82 81 
					83 81 82 
					79 81 83 
					82 74 84 
					83 82 85 
					82 84 85 
					74 80 84 
					72 71 73 
					86 87 88 
					88 87 89 
					90 87 91 
					92 87 86 
					88 89 93 
					88 93 94 
					94 93 95 
					96 94 95 
					89 97 93 
					93 97 95 
					98 99 97 
					89 98 97 
					100 99 98 
					95 101 96 
					102 101 80 
					80 101 84 
					96 101 102 
					79 103 102 
					102 103 104 
					104 103 105 
					99 104 105 
					100 104 99 
					90 98 89 
					94 92 86 
					107 106 98 
					96 92 94 
					91 108 106 
					91 109 108 
					110 108 109 
					92 110 109 
					107 90 91 
					92 111 87 
					91 106 107 
					109 111 92 
					112 110 102 
					106 104 100 
					98 106 100 
					102 80 79 
					106 108 104 
					107 106 91 
					104 112 102 
					96 110 92 
					110 96 102 
					110 96 102 
					108 110 112 
					115 114 113 
					116 114 115 
					117 116 115 
					117 115 113 
					118 119 114 
					118 114 116 
					120 117 113 
					120 121 117 
					122 121 120 
					123 121 95 
					123 116 117 
					123 117 121 
					123 97 116 
					121 101 95 
					122 101 121 
					101 122 84 
					124 85 122 
					118 97 99 
					84 122 85 
					79 83 103 
					83 124 103 
					103 124 105 
					83 85 124 
					124 122 125 
					126 124 125 
					127 119 118 
					105 126 128 
					99 105 128 
					99 128 118 
					128 127 118 
					122 129 125 
					129 122 120 
					114 130 113 
					129 120 131 
					131 120 113 
					130 119 131 
					130 131 113 
					125 131 119 
					129 131 125 
					105 124 126 
					105 124 126 
					119 130 114 
					128 126 127 
					127 126 125 
					127 125 119 
					118 116 97 
					26 7 1 
					6 25 26 
					1 4 6 
					2 3 4 
					27 24 6 
					25 24 19 
					3 12 8 
					11 28 50 
					50 14 11 
					57 56 53 
					51 30 62 
					30 51 53 
					52 51 64 
					64 59 42 
					59 45 42 
					37 39 47 
					45 48 43 
					37 69 30 
					30 54 31 
					66 67 68 
					76 59 75 
					109 91 111 
					111 91 87 
					86 88 94 
					87 90 89 
					104 108 112 
					107 98 90 
					95 97 123 
				</DataArray>
				<DataArray type="Int32" Name="offsets" format="ascii">
					3 6 9 12 15 18 21 24 27 30 33 36 39 42 45 48 51 54 57 60 63 66 69 72 75 78 81 84 87 90 93 96 99 102 105 108 111 114 117 120 123 126 129 132 135 138 141 144 147 150 153 156 159 162 165 168 171 174 177 180 183 186 189 192 195 198 201 204 207 210 213 216 219 222 225 228 231 234 237 240 243 246 249 252 255 258 261 264 267 270 273 276 279 282 285 288 291 294 297 300 303 306 309 312 315 318 321 324 327 330 333 336 339 342 345 348 351 354 357 360 363 366 369 372 375 378 381 384 387 390 393 396 399 402 405 408 411 414 417 420 423 426 429 432 435 438 441 444 447 450 453 456 459 462 465 468 471 474 477 480 483 486 489 492 495 498 501 504 507 510 513 516 519 522 525 528 531 534 537 540 543 546 549 552 555 558 561 564 567 570 573 576 579 582 585 588 591 594 597 600 603 606 609 612 615 618 621 624 627 630 633 636 639 642 645 648 651 654 657 660 663 666 669 672 675 678 681 684 687 690 693 696 699 702 705 708 711 714 717 720 723 726 729 732 735 738 741 744 747 750 753 756 759 762 765 768 771 774 777 780 783 786 789 792 795 
				</DataArray>
			</Polys>
		</Piece>
	</PolyData>
</VTKFile>
