<?xml version="1.0"?>
<VTKFile type="PolyData" version="0.1" byte_order="LittleEndian" compressor="vtkZLibDataCompressor">
	<PolyData>
		<Piece NumberOfPoints="142" NumberOfVerts="0" NumberOfLines="0" NumberOfStrips="0" NumberOfPolys="158">
		<PointData Normals="Normals">
		<DataArray type="Float32" Name="Normals" NumberOfComponents="3" format="ascii">
			0.018911 0.982554 -0.185012
			-0.007725 0.979010 0.203667
			0.092175 0.452881 0.886794
			0.071891 -0.207697 0.975547
			-0.080598 -0.500705 0.861858
			-0.101475 -0.344881 0.933146
			0.015433 -0.050627 0.998598
			0.104603 -0.009864 0.994465
			0.225785 0.032579 0.973633
			0.268268 0.181105 0.946168
			0.352519 0.258460 0.899404
			0.573765 -0.151640 0.804861
			0.321352 -0.946951 0.004060
			-0.122852 -0.915073 -0.384119
			0.178318 -0.964583 0.194379
			0.321546 -0.942708 0.088939
			0.368701 0.927305 0.064534
			0.701675 0.510886 0.496636
			0.678442 -0.009172 0.734597
			0.490237 -0.248889 0.835298
			0.307957 -0.271632 0.911799
			0.248313 -0.084581 0.964981
			0.426430 -0.032410 0.903940
			0.658381 0.009946 0.752619
			0.764182 0.174273 0.621012
			0.867718 0.220021 0.445708
			0.928586 -0.064219 0.365517
			0.359876 -0.932997 0.002318
			-0.584668 -0.804806 -0.102223
			-0.389062 -0.846722 0.362894
			0.521984 0.852955 0.000221
			0.943836 0.313706 0.103743
			0.957443 0.185358 0.221238
			0.960750 0.155695 0.229606
			0.932177 -0.059736 0.357041
			0.867205 -0.102859 0.487212
			0.955108 -0.110492 0.274881
			0.994376 -0.063695 0.084610
			0.997212 0.020173 -0.071852
			0.978230 0.089455 -0.187250
			0.971360 0.176601 -0.158969
			0.893900 -0.369647 -0.253585
			0.095938 -0.995258 -0.016058
			-0.187446 -0.932870 0.307601
			0.531790 0.795953 -0.289235
			0.928524 0.189193 -0.319453
			0.921270 0.305374 -0.240849
			0.888995 0.298178 -0.347532
			0.892971 -0.081727 -0.442634
			0.865916 -0.093179 -0.491434
			0.723724 -0.143275 -0.675052
			0.708161 -0.094471 -0.699702
			0.723067 -0.021317 -0.690450
			0.705657 0.065280 -0.705540
			0.681259 0.301395 -0.667118
			0.682784 0.039131 -0.729571
			0.384610 -0.800855 -0.459028
			-0.090663 -0.992615 0.080593
			0.255687 0.879168 -0.402104
			0.702207 0.532571 -0.472518
			0.707600 0.407353 -0.577378
			0.591513 0.337415 -0.732300
			0.521985 -0.063748 -0.850569
			0.173396 -0.243645 -0.954239
			-0.056879 -0.110277 -0.992272
			0.020669 -0.061858 -0.997871
			0.119283 -0.012026 -0.992788
			0.140088 0.057182 -0.988487
			0.186492 0.284311 -0.940419
			0.124114 0.055560 -0.990712
			0.017458 -0.715507 -0.698387
			-0.038461 -0.999056 0.020189
			-0.037340 0.990925 -0.129124
			-0.041514 0.992768 -0.112641
			-0.031033 0.596621 -0.801922
			-0.168983 0.207897 -0.963443
			0.064587 -0.110776 -0.991745
			0.306311 -0.354815 -0.883334
			0.128071 -0.163328 -0.978224
			-0.061679 -0.051551 -0.996764
			-0.230846 -0.002644 -0.972987
			-0.287287 0.048183 -0.956632
			-0.394049 0.246142 -0.885516
			-0.527697 0.051354 -0.847879
			-0.352499 -0.559132 -0.750411
			0.122445 -0.954554 -0.271724
			-0.297218 0.935561 -0.190755
			-0.623039 0.772240 -0.124373
			-0.781707 0.144751 -0.606614
			-0.814956 -0.105344 -0.569868
			-0.614896 -0.268001 -0.741672
			0.137385 -0.359319 -0.923047
			0.044712 -0.163063 -0.985601
			-0.384775 -0.039059 -0.922184
			-0.678558 0.010928 -0.734466
			-0.729789 0.073280 -0.679733
			-0.859329 0.208467 -0.467007
			-0.883007 -0.140268 -0.447909
			-0.585402 -0.580417 -0.566059
			0.131724 -0.831336 -0.539934
			-0.517160 0.831637 -0.202301
			-0.932582 0.133050 -0.335540
			-0.757821 -0.545060 -0.358633
			-0.859513 -0.496855 -0.119889
			-0.953912 -0.246601 -0.170997
			-0.932284 -0.116328 -0.342514
			-0.912590 -0.080738 -0.400827
			-0.986538 -0.001908 -0.163523
			-0.999245 0.037598 0.009785
			-0.988083 0.147905 0.042621
			-0.986600 0.056938 0.152902
			-0.742673 -0.669653 0.001217
			-0.579589 -0.807215 -0.111722
			-0.030964 -0.937235 -0.347321
			-0.604649 0.770857 0.200449
			-0.883232 -0.198379 0.424908
			-0.568167 -0.789956 0.230555
			-0.635720 -0.733596 0.240201
			-0.845485 -0.246416 0.473745
			-0.797445 -0.024943 0.602876
			-0.819714 -0.026930 0.572139
			-0.766841 0.014696 0.641669
			-0.753557 0.049836 0.655492
			-0.737499 0.182353 0.650264
			-0.632314 -0.086946 0.769818
			-0.197213 -0.853025 0.483172
			-0.117042 -0.841058 0.528130
			0.376714 -0.849843 0.368583
			-0.437665 0.837202 0.327936
			-0.511315 0.053002 0.857757
			-0.396964 -0.575854 0.714712
			-0.388611 -0.633114 0.669438
			-0.327594 -0.266469 0.906464
			-0.138257 -0.030609 0.989923
			-0.191865 -0.021867 0.981178
			-0.172230 0.017868 0.984894
			-0.182072 0.090835 0.979080
			-0.214467 0.210026 0.953883
			-0.016189 -0.098025 0.995052
			0.215729 -0.853293 0.474712
			0.444174 -0.820823 0.359109
			0.722692 -0.618750 0.308001
		</DataArray>
	</PointData>
	<Points>
		<DataArray type="Float32" NumberOfComponents="3" format="ascii">
			0.005872 -0.031255 -0.003412
			0.006292 -0.028520 0.008116
			0.007350 -0.038777 0.027751
			0.007792 -0.048694 0.029300
			0.007989 -0.068186 0.023092
			0.007332 -0.079129 0.013160
			0.007207 -0.133499 0.006683
			0.007439 -0.235059 0.003883
			0.008051 -0.304476 0.003990
			0.010407 -0.368081 0.007518
			0.015098 -0.390306 0.015708
			0.016585 -0.405352 0.017583
			0.013815 -0.415269 0.012133
			0.011651 -0.403302 0.008736
			0.009521 -0.400565 0.004924
			0.003720 -0.403984 -0.005682
			0.016825 -0.031255 0.009034
			0.024767 -0.040317 0.017555
			0.025714 -0.052627 0.017907
			0.026558 -0.068357 0.017913
			0.024308 -0.080667 0.014971
			0.021383 -0.117256 0.010563
			0.019040 -0.186161 0.006248
			0.016495 -0.254550 0.002674
			0.016784 -0.320036 0.001387
			0.022156 -0.365173 0.002900
			0.025550 -0.396121 0.003415
			0.025461 -0.406891 0.003019
			0.021741 -0.405010 0.001582
			0.014319 -0.404839 -0.001407
			0.027699 -0.033990 0.001916
			0.030676 -0.041855 0.002340
			0.031011 -0.056559 0.001841
			0.039080 -0.068529 0.002984
			0.039536 -0.082205 0.003213
			0.038867 -0.101014 0.001353
			0.032548 -0.137261 -0.001114
			0.023835 -0.204625 -0.004074
			0.018555 -0.271990 -0.005785
			0.019804 -0.340039 -0.007593
			0.024091 -0.386886 -0.009701
			0.030184 -0.398514 -0.011404
			0.026214 -0.406719 -0.010833
			0.014340 -0.409115 -0.008172
			0.027168 -0.033990 -0.010609
			0.029933 -0.041855 -0.011875
			0.029996 -0.056559 -0.012526
			0.037461 -0.068529 -0.015924
			0.037404 -0.082205 -0.017521
			0.036504 -0.101014 -0.017307
			0.029951 -0.137261 -0.016142
			0.021184 -0.204625 -0.014239
			0.015963 -0.271990 -0.013135
			0.016179 -0.340039 -0.015624
			0.018746 -0.386886 -0.019908
			0.022995 -0.398514 -0.024664
			0.019960 -0.406719 -0.022092
			0.011363 -0.409115 -0.013495
			0.015325 -0.034675 -0.016168
			0.018263 -0.036555 -0.020225
			0.023045 -0.045959 -0.027391
			0.025006 -0.062202 -0.031495
			0.025797 -0.070580 -0.033413
			0.021482 -0.084087 -0.028094
			0.016845 -0.110418 -0.022674
			0.012082 -0.169404 -0.017864
			0.009123 -0.253356 -0.016361
			0.008078 -0.320720 -0.018305
			0.007817 -0.378509 -0.023868
			0.008676 -0.392871 -0.030599
			0.007581 -0.403472 -0.026915
			0.005746 -0.409115 -0.017532
			0.005407 -0.035359 -0.013575
			0.005209 -0.031255 -0.020396
			0.004392 -0.035359 -0.036583
			0.003379 -0.055875 -0.037777
			0.003173 -0.058953 -0.038610
			0.003604 -0.067159 -0.028805
			0.003840 -0.083575 -0.020965
			0.003378 -0.134183 -0.016029
			0.001664 -0.234718 -0.015276
			0.000088 -0.301399 -0.016127
			-0.003733 -0.370131 -0.020984
			-0.007489 -0.387229 -0.027214
			-0.006092 -0.400223 -0.023719
			-0.002740 -0.409115 -0.017189
			-0.008370 -0.034503 -0.019473
			-0.012412 -0.042881 -0.023623
			-0.017088 -0.047497 -0.028502
			-0.015444 -0.059294 -0.026065
			-0.013389 -0.069554 -0.023401
			-0.009645 -0.101014 -0.018416
			-0.007141 -0.126660 -0.015335
			-0.004412 -0.202231 -0.011538
			-0.007447 -0.286523 -0.012098
			-0.008830 -0.336963 -0.011928
			-0.017866 -0.388938 -0.014864
			-0.020186 -0.400052 -0.015484
			-0.013280 -0.406550 -0.012501
			-0.008076 -0.414585 -0.010293
			-0.027484 -0.033649 -0.011612
			-0.032231 -0.054507 -0.011864
			-0.028739 -0.059636 -0.010903
			-0.021342 -0.062715 -0.009251
			-0.013471 -0.080155 -0.007295
			-0.011219 -0.134867 -0.006049
			-0.011472 -0.169746 -0.005555
			-0.006918 -0.270283 -0.004359
			-0.012979 -0.338330 -0.002954
			-0.013691 -0.372526 -0.002288
			-0.026513 -0.407746 0.001240
			-0.023547 -0.412876 0.000710
			-0.012016 -0.412876 -0.002017
			-0.008197 -0.420056 -0.002852
			-0.026681 -0.033649 0.007519
			-0.030758 -0.054507 0.009775
			-0.027279 -0.059636 0.008697
			-0.020138 -0.062715 0.006120
			-0.012389 -0.080155 0.003495
			-0.009660 -0.134867 0.003141
			-0.009514 -0.169746 0.003558
			-0.004789 -0.270283 0.001720
			-0.009026 -0.338330 0.005856
			-0.009214 -0.372526 0.006648
			-0.018102 -0.407746 0.016335
			-0.015874 -0.412876 0.014278
			-0.007595 -0.412876 0.005800
			-0.004808 -0.420056 0.003016
			-0.007428 -0.031083 0.014308
			-0.014419 -0.046642 0.024536
			-0.013694 -0.054165 0.023971
			-0.009556 -0.065450 0.018621
			-0.004266 -0.079642 0.011271
			-0.001306 -0.134183 0.007680
			-0.000231 -0.202403 0.006853
			0.001132 -0.287377 0.004944
			0.000299 -0.353205 0.009829
			-0.000445 -0.381415 0.014987
			-0.001274 -0.406550 0.022312
			-0.000306 -0.414073 0.017812
			0.000896 -0.408089 0.010208
			0.001631 -0.410312 0.006120
		</DataArray>
	</Points>
			<Polys>
				<DataArray type="Int32" Name="connectivity" format="ascii">
					0 1 16 
					1 2 17 16 
					2 3 18 17 
					3 4 19 18 
					4 5 20 19 
					5 6 21 20 
					6 7 22 21 
					7 8 23 22 
					8 9 24 23 
					9 10 25 24 
					10 11 26 25 
					11 12 27 26 
					12 13 28 27 
					13 14 29 28 
					14 15 29 
					0 16 30 
					16 17 31 30 
					17 18 32 31 
					18 19 33 32 
					20 34 19 
					19 34 33 
					21 35 20 
					20 35 34 
					21 22 36 35 
					22 23 37 36 
					23 24 38 37 
					24 25 39 38 
					25 26 40 39 
					26 27 41 40 
					27 28 42 41 
					28 29 43 42 
					29 15 43 
					0 30 44 
					30 31 45 44 
					31 32 46 45 
					32 33 47 46 
					34 48 33 
					33 48 47 
					35 49 34 
					34 49 48 
					35 36 50 49 
					36 37 51 50 
					37 38 52 51 
					38 39 53 52 
					39 40 54 53 
					40 41 55 54 
					41 42 56 55 
					42 43 57 56 
					43 15 57 
					0 44 58 
					44 45 59 58 
					45 46 60 59 
					46 47 61 60 
					48 62 47 
					47 62 61 
					49 63 48 
					48 63 62 
					49 50 64 63 
					50 51 65 64 
					51 52 66 65 
					52 53 67 66 
					53 54 68 67 
					54 55 69 68 
					55 56 70 69 
					56 57 71 70 
					57 15 71 
					0 58 72 
					58 59 73 72 
					59 60 74 73 
					60 61 75 74 
					61 62 76 75 
					62 63 77 76 
					63 64 78 77 
					64 65 79 78 
					65 66 80 79 
					66 67 81 80 
					67 68 82 81 
					68 69 83 82 
					69 70 84 83 
					70 71 85 84 
					71 15 85 
					0 72 86 
					72 73 87 86 
					73 74 88 87 
					74 75 89 88 
					75 76 90 89 
					76 77 91 90 
					77 78 92 91 
					78 79 93 92 
					79 80 94 93 
					80 81 95 94 
					81 82 96 95 
					82 83 97 96 
					83 84 98 97 
					84 85 99 98 
					85 15 99 
					0 86 100 
					86 87 101 100 
					88 102 101 
					87 88 101 
					88 89 103 102 
					89 90 104 103 
					90 91 105 104 
					91 92 106 105 
					92 93 107 106 
					93 94 108 107 
					94 95 109 108 
					95 96 110 109 
					96 97 111 110 
					97 98 112 111 
					98 99 113 112 
					99 15 113 
					0 100 114 
					100 101 115 114 
					101 102 116 115 
					102 103 117 116 
					103 104 118 117 
					104 105 119 118 
					105 106 120 119 
					106 107 121 120 
					107 108 122 121 
					108 109 123 122 
					109 110 124 123 
					110 111 125 124 
					111 112 126 125 
					112 113 127 126 
					113 15 127 
					0 114 128 
					114 115 129 128 
					115 116 130 129 
					116 117 131 130 
					117 118 132 131 
					118 119 133 132 
					119 120 134 133 
					120 121 135 134 
					121 122 136 135 
					122 123 137 136 
					123 124 138 137 
					124 125 139 138 
					125 126 140 139 
					126 127 141 140 
					127 15 141 
					0 128 1 
					128 129 2 1 
					129 130 3 2 
					130 131 4 3 
					131 132 5 4 
					132 133 6 5 
					133 134 7 6 
					134 135 8 7 
					135 136 9 8 
					136 137 10 9 
					137 138 11 10 
					138 139 12 11 
					139 140 13 12 
					140 141 14 13 
					141 15 14 
					88 89 102 
				</DataArray>
				<DataArray type="Int32" Name="offsets" format="ascii">
					3 7 11 15 19 23 27 31 35 39 43 47 51 55 58 61 65 69 73 76 79 82 85 89 93 97 101 105 109 113 117 120 123 127 131 135 138 141 144 147 151 155 159 163 167 171 175 179 182 185 189 193 197 200 203 206 209 213 217 221 225 229 233 237 241 244 247 251 255 259 263 267 271 275 279 283 287 291 295 299 302 305 309 313 317 321 325 329 333 337 341 345 349 353 357 360 363 367 370 373 377 381 385 389 393 397 401 405 409 413 417 420 423 427 431 435 439 443 447 451 455 459 463 467 471 475 478 481 485 489 493 497 501 505 509 513 517 521 525 529 533 536 539 543 547 551 555 559 563 567 571 575 579 583 587 591 594 597 
				</DataArray>
			</Polys>
		</Piece>
	</PolyData>
</VTKFile>
