v 0.00600 -0.03125  -0.00318100
v 0.00600 -0.02852   0.00833500
v 0.00600 -0.03878   0.02807400
v 0.00600 -0.04869   0.02971900
v 0.00600 -0.06819   0.02368700
v 0.00600 -0.07913   0.01381800
v 0.00600 -0.13350   0.00778500
v 0.00600 -0.23506   0.00586600
v 0.00600 -0.30448   0.00668900
v 0.00600 -0.36808   0.01135000
v 0.00600 -0.39031   0.02094500
v 0.00600 -0.40535   0.02341400
v 0.00600 -0.41527   0.01738000
v 0.00600 -0.40330   0.01326900
v 0.00600 -0.40057   0.00888200
v 0.00600 -0.40398  -0.00318100
v 0.01646 -0.03125   0.00968300
v 0.02385 -0.04032   0.01877700
v 0.02448 -0.05263   0.01955400
v 0.02494 -0.06836   0.02010800
v 0.02268 -0.08067   0.01733600
v 0.01962 -0.11726   0.01356500
v 0.01709 -0.18616   0.01046000
v 0.01484 -0.25455   0.00768800
v 0.01493 -0.32004   0.00779800
v 0.01862 -0.36517   0.01234600
v 0.02088 -0.39612   0.01511800
v 0.02079 -0.40689   0.01500700
v 0.01826 -0.40501   0.01190200
v 0.01321 -0.40484   0.00569200
v 0.02759 -0.03399   0.00308800
v 0.03051 -0.04186   0.00393700
v 0.03080 -0.05656   0.00402100
v 0.03868 -0.06853   0.00630800
v 0.03900 -0.08221   0.00724100
v 0.03839 -0.10101   0.00622400
v 0.03226 -0.13726   0.00444500
v 0.02409 -0.20463   0.00207200
v 0.01942 -0.27199   0.00071600
v 0.02117 -0.34004   0.00122500
v 0.02584 -0.38689   0.00258000
v 0.03197 -0.39851   0.00436100
v 0.02818 -0.40672   0.00325900
v 0.01650 -0.40912  -0.00013100
v 0.02759 -0.03399  -0.00944900
v 0.03051 -0.04186  -0.01029800
v 0.03080 -0.05656  -0.01038200
v 0.03868 -0.06853  -0.01266900
v 0.03900 -0.08221  -0.01360300
v 0.03839 -0.10101  -0.01258500
v 0.03226 -0.13726  -0.01080600
v 0.02409 -0.20463  -0.00843300
v 0.01942 -0.27199  -0.00707800
v 0.02117 -0.34004  -0.00758600
v 0.02584 -0.38689  -0.00894200
v 0.03197 -0.39851  -0.01072200
v 0.02818 -0.40672  -0.00962000
v 0.01650 -0.40912  -0.00623000
v 0.01601 -0.03467  -0.01549100
v 0.01917 -0.03655  -0.01937200
v 0.02458 -0.04596  -0.02602600
v 0.02737 -0.06220  -0.02946300
v 0.02863 -0.07058  -0.03101700
v 0.02430 -0.08409  -0.02569200
v 0.01980 -0.11042  -0.02014800
v 0.01556 -0.16940  -0.01493500
v 0.01375 -0.25336  -0.01271800
v 0.01457 -0.32072  -0.01371700
v 0.01781 -0.37851  -0.01770700
v 0.02205 -0.39287  -0.02292000
v 0.01962 -0.40347  -0.01992700
v 0.01357 -0.40912  -0.01249500
v 0.00600 -0.03536  -0.01332400
v 0.00600 -0.03125  -0.02017800
v 0.00600 -0.03536  -0.03635400
v 0.00600 -0.05588  -0.03745000
v 0.00600 -0.05895  -0.03827300
v 0.00600 -0.06716  -0.02840300
v 0.00600 -0.08357  -0.02045200
v 0.00600 -0.13418  -0.01524300
v 0.00600 -0.23472  -0.01414700
v 0.00600 -0.30140  -0.01497000
v 0.00600 -0.37013  -0.02045200
v 0.00600 -0.38723  -0.02758000
v 0.00600 -0.40022  -0.02374200
v 0.00600 -0.40912  -0.01633900
v -0.00752 -0.03450  -0.01981500
v -0.01113 -0.04288  -0.02425200
v -0.01537 -0.04750  -0.02946300
v -0.01348 -0.05929  -0.02713400
v -0.01131 -0.06955  -0.02447300
v -0.00726 -0.10101  -0.01948200
v -0.00464 -0.12666  -0.01626700
v -0.00139 -0.20223  -0.01227400
v -0.00275 -0.28652  -0.01393800
v -0.00320 -0.33696  -0.01449200
v -0.00888 -0.38894  -0.02147800
v -0.01032 -0.40005  -0.02325300
v -0.00554 -0.40655  -0.01737600
v -0.00194 -0.41458  -0.01293900
v -0.02697 -0.03365  -0.01275400
v -0.03135 -0.05451  -0.01402500
v -0.02785 -0.05964  -0.01300800
v -0.02055 -0.06272  -0.01089000
v -0.01268 -0.08016  -0.00860200
v -0.01005 -0.13487  -0.00784100
v -0.01005 -0.16975  -0.00784100
v -0.00509 -0.27028  -0.00640100
v -0.01063 -0.33833  -0.00800900
v -0.01122 -0.37253  -0.00817800
v -0.02376 -0.40775  -0.01182100
v -0.02085 -0.41288  -0.01097400
v -0.00947 -0.41288  -0.00767100
v -0.00567 -0.42006  -0.00656900
v -0.02697 -0.03365   0.00639300
v -0.03135 -0.05451   0.00766400
v -0.02785 -0.05964   0.00664700
v -0.02055 -0.06272   0.00452800
v -0.01268 -0.08016   0.00224200
v -0.01005 -0.13487   0.00148000
v -0.01005 -0.16975   0.00148000
v -0.00509 -0.27028   0.00004000
v -0.01063 -0.33833   0.00164800
v -0.01122 -0.37253   0.00181700
v -0.02376 -0.40775   0.00545900
v -0.02085 -0.41288   0.00461400
v -0.00947 -0.41288   0.00131000
v -0.00567 -0.42006   0.00020700
v -0.00798 -0.03108   0.01400900
v -0.01582 -0.04664   0.02365700
v -0.01528 -0.05416   0.02299200
v -0.01104 -0.06545   0.01778000
v -0.00536 -0.07964   0.01079300
v -0.00257 -0.13418   0.00735500
v -0.00194 -0.20240   0.00657800
v -0.00067 -0.28738   0.00502700
v -0.00392 -0.35320   0.00901900
v -0.00726 -0.38142   0.01312100
v -0.01194 -0.40655   0.01888900
v -0.00906 -0.41407   0.01534000
v -0.00419 -0.40809   0.00935200
v -0.00157 -0.41031   0.00613500
f 1 2 17
f 2 3 18
f 3 4 19
f 4 5 20
f 5 6 21
f 6 7 22
f 7 8 23
f 8 9 24
f 9 10 25
f 10 11 26
f 11 12 27
f 12 13 28
f 13 14 29
f 14 15 30
f 15 16 30
f 1 17 31
f 17 18 32
f 18 19 33
f 19 20 34
f 21 35 20
f 20 35 34
f 22 36 21
f 21 36 35
f 22 23 37
f 23 24 38
f 24 25 39
f 25 26 40
f 26 27 41
f 27 28 42
f 28 29 43
f 29 30 44
f 30 16 44
f 1 31 45
f 31 32 46
f 32 33 47
f 33 34 48
f 35 49 34
f 34 49 48
f 36 50 35
f 35 50 49
f 36 37 51
f 37 38 52
f 38 39 53
f 39 40 54
f 40 41 55
f 41 42 56
f 42 43 57
f 43 44 58
f 44 16 58
f 1 45 59
f 45 46 60
f 46 47 61
f 47 48 62
f 49 63 48
f 48 63 62
f 50 64 49
f 49 64 63
f 50 51 65
f 51 52 66
f 52 53 67
f 53 54 68
f 54 55 69
f 55 56 70
f 56 57 71
f 57 58 72
f 58 16 72
f 1 59 73
f 59 60 74
f 60 61 75
f 61 62 76
f 62 63 77
f 63 64 78
f 64 65 79
f 65 66 80
f 66 67 81
f 67 68 82
f 68 69 83
f 69 70 84
f 70 71 85
f 71 72 86
f 72 16 86
f 1 73 87
f 73 74 88
f 74 75 89
f 75 76 90
f 76 77 91
f 77 78 92
f 78 79 93
f 79 80 94
f 80 81 95
f 81 82 96
f 82 83 97
f 83 84 98
f 84 85 99
f 85 86 100
f 86 16 100
f 1 87 101
f 87 88 102
f 89 103 102
f 88 89 102
f 89 90 104
f 90 91 105
f 91 92 106
f 92 93 107
f 93 94 108
f 94 95 109
f 95 96 110
f 96 97 111
f 97 98 112
f 98 99 113
f 99 100 114
f 100 16 114
f 1 101 115
f 101 102 116
f 102 103 117
f 103 104 118
f 104 105 119
f 105 106 120
f 106 107 121
f 107 108 122
f 108 109 123
f 109 110 124
f 110 111 125
f 111 112 126
f 112 113 127
f 113 114 128
f 114 16 128
f 1 115 129
f 115 116 130
f 116 117 131
f 117 118 132
f 118 119 133
f 119 120 134
f 120 121 135
f 121 122 136
f 122 123 137
f 123 124 138
f 124 125 139
f 125 126 140
f 126 127 141
f 127 128 142
f 128 16 142
f 1 129 2
f 129 130 3
f 130 131 4
f 131 132 5
f 132 133 6
f 133 134 7
f 134 135 8
f 135 136 9
f 136 137 10
f 137 138 11
f 138 139 12
f 139 140 13
f 140 141 14
f 141 142 15
f 142 16 15
f 89 90 103
